<?xml version="1.0" encoding="UTF-8"?>
<svg version="1.1" xmlns="http://www.w3.org/2000/svg" width="500" height="500">
<path d="M0 0 C1.21526367 0.03915527 2.43052734 0.07831055 3.68261719 0.11865234 C4.82375977 0.16070801 5.96490234 0.20276367 7.140625 0.24609375 C8.17219727 0.28275146 9.20376953 0.31940918 10.26660156 0.35717773 C12.75 0.5625 12.75 0.5625 14.75 1.5625 C16.32139311 1.63478119 17.89583963 1.64630353 19.46875 1.625 C20.40074219 1.61726563 21.33273438 1.60953125 22.29296875 1.6015625 C23.26878906 1.58867188 24.24460937 1.57578125 25.25 1.5625 C27.17702781 1.53704389 29.10412042 1.51599278 31.03125 1.5 C31.88783203 1.48839844 32.74441406 1.47679688 33.62695312 1.46484375 C35.75 1.5625 35.75 1.5625 37.75 2.5625 C39.39436757 2.63500298 41.04167202 2.64625172 42.6875 2.625 C43.66460937 2.61726563 44.64171875 2.60953125 45.6484375 2.6015625 C47.18371094 2.58222656 47.18371094 2.58222656 48.75 2.5625 C50.77078046 2.53704936 52.79162259 2.51599639 54.8125 2.5 C55.71097656 2.48839844 56.60945312 2.47679688 57.53515625 2.46484375 C59.75 2.5625 59.75 2.5625 61.75 3.5625 C63.38301089 3.62323705 65.01853504 3.62274715 66.65234375 3.58984375 C67.62494141 3.57759766 68.59753906 3.56535156 69.59960938 3.55273438 C71.65436854 3.51764361 73.70906403 3.4785958 75.76367188 3.43554688 C76.73755859 3.42458984 77.71144531 3.41363281 78.71484375 3.40234375 C79.6080835 3.38550537 80.50132324 3.36866699 81.42163086 3.35131836 C83.75 3.5625 83.75 3.5625 86.75 5.5625 C88.98180643 5.9293953 88.98180643 5.9293953 91.49629211 5.97937012 C92.47305405 6.0212999 93.44981598 6.06322968 94.45617676 6.10643005 C95.52678345 6.1428511 96.59739014 6.17927216 97.70043945 6.21679688 C99.39374641 6.28556786 99.39374641 6.28556786 101.1212616 6.35572815 C103.5781425 6.45425869 106.03520108 6.54843163 108.4923954 6.6388092 C112.39083319 6.78226386 116.28868057 6.93697428 120.18656921 7.09460449 C127.77483265 7.40006246 135.3635933 7.69178629 142.95246124 7.98177338 C153.22904577 8.37493865 163.50526533 8.77634877 173.78105736 9.18971252 C177.60377464 9.34090212 181.4267535 9.48316599 185.24983215 9.62487793 C218.44841874 10.91170937 218.44841874 10.91170937 227.75 15.5625 C228.41 15.68625 229.07 15.81 229.75 15.9375 C231.75 16.5625 231.75 16.5625 233.75 19.5625 C234.74 19.8925 235.73 20.2225 236.75 20.5625 C237.4522614 21.8774339 238.11286488 23.21480528 238.75 24.5625 C239.99511314 26.1044613 241.26882654 27.62354725 242.5625 29.125 C248.74132983 36.73660196 251.86237915 45.29171727 254.75 54.5625 C255.08 54.5625 255.41 54.5625 255.75 54.5625 C255.75 58.1925 255.75 61.8225 255.75 65.5625 C260.00131327 67.16122993 263.58351974 67.82790865 268.1171875 67.90625 C269.32463623 67.93428711 270.53208496 67.96232422 271.77612305 67.99121094 C273.04625244 68.01473633 274.31638184 68.03826172 275.625 68.0625 C290.54784192 68.47832668 304.38713728 69.51290384 318.72729492 73.88574219 C322.50253315 75.02791715 325.79329696 75.85905762 329.75 75.5625 C329.75 76.2225 329.75 76.8825 329.75 77.5625 C330.79800781 77.97822266 330.79800781 77.97822266 331.8671875 78.40234375 C332.77726562 78.76457031 333.68734375 79.12679687 334.625 79.5 C335.52992188 79.85964844 336.43484375 80.21929687 337.3671875 80.58984375 C339.75 81.5625 339.75 81.5625 341.75 82.5625 C342.35457031 82.68882812 342.95914062 82.81515625 343.58203125 82.9453125 C346.23218758 83.69977142 348.14523962 84.91437823 350.4375 86.4375 C351.22511719 86.95054687 352.01273437 87.46359375 352.82421875 87.9921875 C354.75 89.5625 354.75 89.5625 355.75 92.5625 C357.07303717 92.9346042 358.40737935 93.26880173 359.75 93.5625 C360.08 94.2225 360.41 94.8825 360.75 95.5625 C361.74 95.8925 362.73 96.2225 363.75 96.5625 C364.02972656 97.13355469 364.30945313 97.70460938 364.59765625 98.29296875 C366.19122418 101.43148728 368.65460243 103.49849343 371.1875 105.875 C386.16226504 120.44895853 396.92211376 138.89299305 403.75 158.5625 C403.97671387 159.20735352 404.20342773 159.85220703 404.43701172 160.51660156 C417.31061717 197.9888093 414.04287996 240.12861226 396.75 275.5625 C396.43659668 276.20848145 396.12319336 276.85446289 395.80029297 277.52001953 C391.05930466 287.15866327 385.71750924 297.30402405 377.56550598 304.48744202 C372.41383826 309.32498882 370.14848057 312.86350212 369.68408203 319.99658203 C369.63259853 322.85799657 369.69001305 325.70962375 369.7578125 328.5703125 C369.75978167 330.10627295 369.75733026 331.64224473 369.7507019 333.17819214 C369.74311918 337.19710228 369.78630282 341.21372541 369.84332275 345.23217773 C369.92635252 351.66786459 369.93265553 358.103994 369.93636703 364.5401268 C369.94513052 366.77392532 369.97648179 369.00649865 370.01150513 371.24002075 C370.10844653 380.83376945 369.03228448 387.39896944 363.75 395.5625 C363.42 396.2225 363.09 396.8825 362.75 397.5625 C354.49509119 399.6262272 347.15768873 398.68794269 339.1328125 396.21875 C336.67986948 395.4297381 336.67986948 395.4297381 333.75 395.5625 C333.30269531 396.49191406 332.85539062 397.42132813 332.39453125 398.37890625 C323.86889103 415.8963402 323.86889103 415.8963402 317.75 419.5625 C314.80493164 419.95068359 314.80493164 419.95068359 311.41015625 419.9609375 C309.5684082 419.96673828 309.5684082 419.96673828 307.68945312 419.97265625 C306.41005859 419.96105469 305.13066406 419.94945312 303.8125 419.9375 C301.89920898 419.95490234 301.89920898 419.95490234 299.94726562 419.97265625 C298.71814453 419.96878906 297.48902344 419.96492188 296.22265625 419.9609375 C295.10125244 419.95755371 293.97984863 419.95416992 292.82446289 419.95068359 C286.90965633 419.20387644 282.94461266 415.21211332 278.5625 411.4375 C277.70712646 410.70781006 277.70712646 410.70781006 276.83447266 409.96337891 C273.38309678 407.00657467 269.98849098 403.9942406 266.625 400.9375 C262.28000705 396.98879306 257.7891288 393.25485945 253.21875 389.5703125 C251.26698894 387.98296253 249.37978935 386.35731288 247.5 384.6875 C234.10357528 374.33571726 213.22672509 378.70339192 197.47253418 379.84588623 C131.7685068 384.53525584 131.7685068 384.53525584 100.75 373.5625 C99.64269531 373.18222656 98.53539062 372.80195313 97.39453125 372.41015625 C77.84899087 365.33947964 61.61472371 353.89475599 46.75 339.5625 C46.07195312 338.93601562 45.39390625 338.30953125 44.6953125 337.6640625 C39.25486793 332.51377497 34.80432875 326.43921715 31.296875 319.8203125 C29.96964431 317.47370017 29.96964431 317.47370017 27.890625 316.69140625 C25.26457808 316.53326839 23.07015065 316.9382385 20.5 317.5 C12.39956756 319.06851875 5.30383625 319.37782746 -2.25 315.5625 C-8.70246469 311.14328785 -13.14374123 306.17261352 -15.25 298.5625 C-16.11475246 293.50251888 -16.3728122 288.59643886 -16.3125 283.4765625 C-16.30871338 282.73417328 -16.30492676 281.99178406 -16.30102539 281.22689819 C-16.28890869 278.88037012 -16.2702573 276.53397102 -16.25 274.1875 C-16.22349362 271.07552463 -16.20349695 267.96360752 -16.1875 264.8515625 C-16.17920166 264.13497467 -16.17090332 263.41838684 -16.16235352 262.68008423 C-16.15378925 260.97399415 -16.19668506 259.26777834 -16.25 257.5625 C-18.13002603 255.68247397 -20.90761967 256.00313132 -23.43408203 255.6628418 C-41.93287039 253.13707954 -57.44197615 246.64954843 -69.25 231.5625 C-74.89181715 223.01496848 -79.4800343 213.94347994 -79.53088379 203.55725098 C-79.53682603 202.87596555 -79.54276828 202.19468013 -79.54889059 201.49274969 C-79.56615745 199.22232936 -79.56927187 196.95212127 -79.57226562 194.68164062 C-79.58152992 193.04831498 -79.59158031 191.41499362 -79.60235596 189.78167725 C-79.62853908 185.35148332 -79.64148209 180.92134994 -79.65037727 176.49109077 C-79.65625162 173.71798524 -79.66446382 170.944896 -79.67338562 168.17179871 C-79.70072369 159.48038135 -79.72006055 150.78900155 -79.7277894 142.09754419 C-79.73673648 132.09313635 -79.77177054 122.08927697 -79.82979059 112.0850358 C-79.87316617 104.3344305 -79.89320561 96.58397865 -79.89587164 88.83325338 C-79.89795841 84.21270212 -79.90957085 79.5926668 -79.94551086 74.97224426 C-79.97871816 70.61845459 -79.98266713 66.26556174 -79.96523285 61.91168976 C-79.96370483 60.324334 -79.97220776 58.73692758 -79.99214935 57.14969635 C-80.18638246 40.70966158 -74.91509699 27.47204497 -63.2421875 15.50390625 C-61.3105271 13.74268647 -59.33969208 12.13183398 -57.25 10.5625 C-56.36441406 9.88960937 -56.36441406 9.88960937 -55.4609375 9.203125 C-38.70559701 -2.34736504 -19.25599255 -0.65432984 0 0 Z M-5.25 2.5625 C-1.25 3.5625 -1.25 3.5625 -1.25 3.5625 Z " fill="#E3E2EA" transform="translate(79.25,80.4375)"/>
<path d="M0 0 C0 0.33 0 0.66 0 1 C-4.29 1 -8.58 1 -13 1 C-13.33 1.66 -13.66 2.32 -14 3 C-15.65694085 3.37872934 -17.32656552 3.70250054 -19 4 C-33.01961178 8.26683837 -46.15547286 15.95556846 -53.6796875 28.88671875 C-59.35847976 39.7144638 -60.29804899 48.67989473 -60.2746582 60.76269531 C-60.27901124 62.25177769 -60.28419635 63.74085784 -60.29014587 65.22993469 C-60.3034862 69.2570232 -60.30411991 73.28401756 -60.30158257 77.31112385 C-60.30050909 80.68299219 -60.30540606 84.05484177 -60.310188 87.42670608 C-60.32126686 95.38881455 -60.32173028 103.35087584 -60.31567383 111.31298828 C-60.30964022 119.50180832 -60.32193317 127.69045627 -60.3432439 135.87924695 C-60.36091442 142.93092857 -60.36685254 149.98255569 -60.36360615 157.0342586 C-60.3618012 161.23648177 -60.36434985 165.43858228 -60.37832069 169.64078522 C-60.39098285 173.59715807 -60.38887656 177.55326481 -60.37590981 181.50963402 C-60.37356228 182.95267773 -60.37621239 184.39574065 -60.38453293 185.83876228 C-60.47896476 203.50516696 -56.45156371 215.88297964 -44.26953125 228.8125 C-34.32300066 238.39951743 -20.13820362 241.82926236 -6.6875 242.5625 C-5.57665039 242.62727539 -5.57665039 242.62727539 -4.44335938 242.69335938 C-2.62908536 242.79870432 -0.8145645 242.89978316 1 243 C1.00546844 243.83778992 1.00546844 243.83778992 1.01104736 244.69250488 C1.05302852 250.53337432 1.12248222 256.37346935 1.20751953 262.21386719 C1.23565367 264.39022049 1.2569056 266.56667453 1.27099609 268.74316406 C1.29253006 271.88138118 1.33923506 275.01839663 1.390625 278.15625 C1.39185364 279.12115356 1.39308228 280.08605713 1.39434814 281.0802002 C1.56058491 288.83916099 3.26882286 294.26882286 8.8125 299.8125 C15.63700482 304.4959837 21.78429849 306.37117225 30 305 C36.60154813 302.30609471 41.83593867 297.65531198 46.9921875 292.83203125 C49 291 49 291 51.2421875 289.4296875 C52.11230469 288.72199219 52.11230469 288.72199219 53 288 C53.33425735 285.37374861 53.33425735 285.37374861 53 283 C52.01 282.67 51.02 282.34 50 282 C49.515625 280.38671875 49.515625 280.38671875 49 278 C48.2365264 276.26987032 47.47008352 274.54086518 46.67675781 272.82421875 C42.5065028 263.77182114 39.43894127 254.65500129 37 245 C36.67902344 243.7625 36.35804688 242.525 36.02734375 241.25 C32.64160062 226.13226324 31.90058878 208.78293794 36.2265625 193.80078125 C37.04582396 190.83406172 37.40403099 187.99355954 37.75 184.9375 C38.62869904 178.77903172 40.46369154 173.10464577 42.5 167.25 C42.80905273 166.35531006 43.11810547 165.46062012 43.43652344 164.53881836 C45.74103088 158.12948456 45.74103088 158.12948456 48 157 C48.67346068 155.1143101 49.34583475 153.22822247 50.01171875 151.33984375 C51.857475 146.96985167 54.63758498 141.18120751 59 139 C59.433125 138.2575 59.86625 137.515 60.3125 136.75 C62.5880752 133.04165523 65.56971873 130.36467203 68.703125 127.375 C71.58926121 124.5641543 74.20032504 121.85952872 76.4375 118.5 C82.75700689 109.32652226 94.23147795 101.06141039 104 96 C104.66 96.33 105.32 96.66 106 97 C98.77561311 104.38941096 98.77561311 104.38941096 95.0625 107.3125 C74.26664438 124.3628655 59.32311986 157.04038928 56.359375 183.26953125 C56 186 56 186 55 188 C48.98713504 224.07718977 57.78382558 264.76843806 78.75 294.75 C97.43862626 320.70741511 122.20170708 336.99647778 152.25 347.375 C152.89710938 347.60171387 153.54421875 347.82842773 154.2109375 348.06201172 C166.87147354 352.18599515 179.54985744 353.49173543 192.8125 353.3125 C194.28352702 353.3037591 195.75455576 353.29530274 197.22558594 353.28710938 C207.02163716 353.20048866 216.77991662 352.74977744 226.55566406 352.13635254 C230.90776286 351.86592005 235.26136999 351.62016132 239.61495972 351.37503052 C243.15456832 351.17373558 246.69113191 350.95435672 250.22705078 350.69580078 C275.10448296 348.92648929 275.10448296 348.92648929 282.48095703 355.19677734 C284.70596779 357.46635198 286.71156336 359.84557074 288.65429688 362.359375 C290.63012639 364.76822375 292.96820594 366.55341436 295.4375 368.4375 C302.0637682 373.74442208 308.25002623 379.548209 314.35449219 385.44335938 C315.85684381 386.86457509 317.42954263 388.21046986 319.0078125 389.546875 C321 392 321 392 321.046875 394.87109375 C319.82546025 398.52166544 318.19601329 401.76071642 316.25 405.0625 C315.74726562 405.9606543 315.74726562 405.9606543 315.234375 406.87695312 C312.94644563 410.83316432 310.37376438 413.86642083 307 417 C306.34 417.66 305.68 418.32 305 419 C300.41349485 419.46347061 295.79467712 419.32395494 291.1875 419.3125 C289.90294922 419.32861328 288.61839844 419.34472656 287.29492188 419.36132812 C285.43770508 419.36229492 285.43770508 419.36229492 283.54296875 419.36328125 C282.40883545 419.36626221 281.27470215 419.36924316 280.10620117 419.37231445 C274.16589217 418.66029911 270.20771757 414.66090148 265.8125 410.875 C264.95712646 410.14531006 264.95712646 410.14531006 264.08447266 409.40087891 C260.63309678 406.44407467 257.23849098 403.4317406 253.875 400.375 C249.53000705 396.42629306 245.0391288 392.69235945 240.46875 389.0078125 C238.51698894 387.42046253 236.62978935 385.79481288 234.75 384.125 C221.35357528 373.77321726 200.47672509 378.14089192 184.72253418 379.28338623 C119.0185068 383.97275584 119.0185068 383.97275584 88 373 C86.89269531 372.61972656 85.78539062 372.23945313 84.64453125 371.84765625 C65.09899087 364.77697964 48.86472371 353.33225599 34 339 C33.32195312 338.37351562 32.64390625 337.74703125 31.9453125 337.1015625 C26.50486793 331.95127497 22.05432875 325.87671715 18.546875 319.2578125 C17.21964431 316.91120017 17.21964431 316.91120017 15.140625 316.12890625 C12.51457808 315.97076839 10.32015065 316.3757385 7.75 316.9375 C-0.35043244 318.50601875 -7.44616375 318.81532746 -15 315 C-21.45246469 310.58078785 -25.89374123 305.61011352 -28 298 C-28.86475246 292.94001888 -29.1228122 288.03393886 -29.0625 282.9140625 C-29.05871338 282.17167328 -29.05492676 281.42928406 -29.05102539 280.66439819 C-29.03890869 278.31787012 -29.0202573 275.97147102 -29 273.625 C-28.97349362 270.51302463 -28.95349695 267.40110752 -28.9375 264.2890625 C-28.92920166 263.57247467 -28.92090332 262.85588684 -28.91235352 262.11758423 C-28.90378925 260.41149415 -28.94668506 258.70527834 -29 257 C-30.88002603 255.11997397 -33.65761967 255.44063132 -36.18408203 255.1003418 C-54.68287039 252.57457954 -70.19197615 246.08704843 -82 231 C-87.64181715 222.45246848 -92.2300343 213.38097994 -92.28088379 202.99475098 C-92.28682603 202.31346555 -92.29276828 201.63218013 -92.29889059 200.93024969 C-92.31615745 198.65982936 -92.31927187 196.38962127 -92.32226562 194.11914062 C-92.33152992 192.48581498 -92.34158031 190.85249362 -92.35235596 189.21917725 C-92.37853908 184.78898332 -92.39148209 180.35884994 -92.40037727 175.92859077 C-92.40625162 173.15548524 -92.41446382 170.382396 -92.42338562 167.60929871 C-92.45072369 158.91788135 -92.47006055 150.22650155 -92.4777894 141.53504419 C-92.48673648 131.53063635 -92.52177054 121.52677697 -92.57979059 111.5225358 C-92.62316617 103.7719305 -92.64320561 96.02147865 -92.64587164 88.27075338 C-92.64795841 83.65020212 -92.65957085 79.0301668 -92.69551086 74.40974426 C-92.72871816 70.05595459 -92.73266713 65.70306174 -92.71523285 61.34918976 C-92.71370483 59.761834 -92.72220776 58.17442758 -92.74214935 56.58719635 C-92.93638246 40.14716158 -87.66509699 26.90954497 -75.9921875 14.94140625 C-74.0605271 13.18018647 -72.08969208 11.56933398 -70 10 C-69.11441406 9.32710937 -69.11441406 9.32710937 -68.2109375 8.640625 C-48.2536528 -5.11716275 -22.76552735 -0.92618895 0 0 Z " fill="#000000" transform="translate(92,81)"/>
<path d="M0 0 C-0.93457031 0.31710938 -1.86914062 0.63421875 -2.83203125 0.9609375 C-20.20661996 7.05594681 -39.64807878 15.63327215 -52.375 29.30859375 C-54.06815668 31.07094192 -55.86150372 32.57536696 -57.75 34.125 C-66.7479751 41.91742115 -74.12915599 51.70071762 -80 62 C-80.38542969 62.66741211 -80.77085937 63.33482422 -81.16796875 64.02246094 C-87.79521764 75.60995073 -92.62041525 87.09025556 -96 100 C-96.20351074 100.76731445 -96.40702148 101.53462891 -96.61669922 102.32519531 C-99.35301119 112.88177522 -100.79484871 123.07437895 -101 134 C-101.01514648 134.70543945 -101.03029297 135.41087891 -101.04589844 136.13769531 C-101.13684045 141.09514422 -101.10612966 146.04312042 -101 151 C-100.98324219 152.07507813 -100.96648437 153.15015625 -100.94921875 154.2578125 C-99.28011401 191.55038131 -78.99361334 226.37431616 -52.4375 251.375 C-47.94874871 255.39262871 -43.22099292 258.59869503 -38.01953125 261.625 C-37.01986328 262.305625 -37.01986328 262.305625 -36 263 C-36 263.66 -36 264.32 -36 265 C-53.54685719 258.77583179 -69.26794383 242.68701761 -80 228 C-80.40025391 227.4529541 -80.80050781 226.9059082 -81.21289062 226.34228516 C-103.93968791 194.8791115 -111.11748805 157.15059403 -107.31640625 118.8984375 C-107 117 -107 117 -106 115 C-105.77857745 113.04310341 -105.5732432 111.08438048 -105.375 109.125 C-100.86190833 77.10821196 -80.50113546 46.408395 -56 26 C-62.11693621 29.48627053 -67.7524491 33.19577051 -73.1875 37.6796875 C-75 39 -75 39 -77 39 C-77.268125 39.639375 -77.53625 40.27875 -77.8125 40.9375 C-79 43 -79 43 -82 44 C-82.6889489 45.3219575 -83.3511312 46.65791524 -84 48 C-85.41660864 49.68188092 -86.87956086 51.32530731 -88.375 52.9375 C-90.71538327 55.4696538 -92.97881791 57.97287275 -95.1015625 60.69140625 C-97 63 -97 63 -100 65 C-100.309375 65.61875 -100.61875 66.2375 -100.9375 66.875 C-102.22387638 69.44775276 -103.97163578 70.97163578 -106 73 C-108.97623782 77.34034682 -110.93190568 82.18144521 -113 87 C-113.66 87 -114.32 87 -115 87 C-115.10441406 87.63808594 -115.20882812 88.27617187 -115.31640625 88.93359375 C-116.05308054 92.23810413 -117.05967356 95.37399304 -118.12011719 98.58618164 C-120.46666001 105.69519711 -122.60199573 112.61761028 -123.578125 120.06640625 C-123.94652739 122.62816734 -124.46172099 125.07785405 -125.0234375 127.6015625 C-130.16227243 153.04304625 -124.33260877 183.87722104 -110.96850586 206.06347656 C-110 208 -110 208 -110 211 C-109.34 211.33 -108.68 211.66 -108 212 C-107.375 214.5625 -107.375 214.5625 -107 217 C-109.64 218.98 -112.28 220.96 -115 223 C-115 221.35 -115 219.7 -115 218 C-120.94 222.455 -120.94 222.455 -127 227 C-127.66 226.67 -128.32 226.34 -129 226 C-128.02546875 225.32517578 -128.02546875 225.32517578 -127.03125 224.63671875 C-122.04166483 220.85457551 -122.04166483 220.85457551 -119.2265625 215.44140625 C-118.91541169 207.19590967 -122.40017078 200.23886476 -125.98754883 193.01000977 C-128.76261997 187.17854473 -130.11949165 181.53696738 -131.1875 175.1875 C-131.51355618 173.34752021 -131.84035053 171.50767105 -132.16796875 169.66796875 C-132.30485107 168.86641357 -132.4417334 168.0648584 -132.58276367 167.23901367 C-132.958975 165.03383967 -132.958975 165.03383967 -133.5480957 163.05200195 C-134.1129222 160.48724412 -134.09426178 158.12564015 -134.0625 155.5 C-134.05476563 154.448125 -134.04703125 153.39625 -134.0390625 152.3125 C-134.01302083 150.10416667 -133.98697917 147.89583333 -133.9609375 145.6875 C-133.95320313 144.635625 -133.94546875 143.58375 -133.9375 142.5 C-133.92589844 141.5409375 -133.91429687 140.581875 -133.90234375 139.59375 C-133.90861125 137.0376193 -133.90861125 137.0376193 -134.56054688 134.77685547 C-135.17638358 132.28682237 -134.17604093 131.22607747 -133 129 C-132.61792974 126.52253164 -132.61792974 126.52253164 -132.5 123.875 C-131.59050215 112.08288993 -128.03586733 101.68217032 -123.94921875 90.66796875 C-123.38496985 89.08203461 -122.8534541 87.48283481 -122.39453125 85.86328125 C-117.810966 69.71313523 -106.24234686 55.31006739 -95.04296875 43.25390625 C-92.9593723 41.02213276 -92.9593723 41.02213276 -91.1328125 38.53125 C-88.62250193 35.55198031 -85.78374272 33.26417717 -82.6875 30.9375 C-82.14416016 30.51662109 -81.60082031 30.09574219 -81.04101562 29.66210938 C-77.19558465 26.73377056 -73.21308711 24.36489323 -69 22 C-67.18157563 20.72950011 -65.43201751 19.40463403 -63.67578125 18.05078125 C-61.77867048 16.86121762 -60.17588907 16.50704204 -58 16 C-56.19815312 15.27479847 -54.40747458 14.52159174 -52.625 13.75 C-45.84624985 10.88398431 -38.95564058 8.39994863 -32 6 C-30.99710937 5.64292969 -29.99421875 5.28585938 -28.9609375 4.91796875 C-25.96858136 3.99025939 -23.09331482 3.47711797 -20 3 C-17.78797119 2.51661128 -15.57958054 2.01629521 -13.375 1.5 C-12.26898438 1.2421875 -11.16296875 0.984375 -10.0234375 0.71875 C-8.26836232 0.30152283 -6.51847458 -0.14292627 -4.7890625 -0.65625 C-3 -1 -3 -1 0 0 Z " fill="#B1B0C1" transform="translate(253,152)"/>
<path d="M0 0 C0.99 0.495 0.99 0.495 2 1 C-5.22438689 8.38941096 -5.22438689 8.38941096 -8.9375 11.3125 C-29.73335562 28.3628655 -44.67688014 61.04038928 -47.640625 87.26953125 C-48 90 -48 90 -49 92 C-53.56664406 119.39986434 -48.72875144 147.37522051 -39 173 C-38.4383048 174.49720936 -37.87709664 175.99460155 -37.31640625 177.4921875 C-36.88199219 178.64976562 -36.44757813 179.80734375 -36 181 C-40.29 184.3 -44.58 187.6 -49 191 C-49.66 190.67 -50.32 190.34 -51 190 C-51 189.01 -51 188.02 -51 187 C-51.99 186.67 -52.98 186.34 -54 186 C-54.484375 184.38671875 -54.484375 184.38671875 -55 182 C-55.7634736 180.26987032 -56.52991648 178.54086518 -57.32324219 176.82421875 C-61.4934972 167.77182114 -64.56105873 158.65500129 -67 149 C-67.32097656 147.7625 -67.64195312 146.525 -67.97265625 145.25 C-71.35839938 130.13226324 -72.09941122 112.78293794 -67.7734375 97.80078125 C-66.95417604 94.83406172 -66.59596901 91.99355954 -66.25 88.9375 C-65.37130096 82.77903172 -63.53630846 77.10464577 -61.5 71.25 C-61.19094727 70.35531006 -60.88189453 69.46062012 -60.56347656 68.53881836 C-58.25896912 62.12948456 -58.25896912 62.12948456 -56 61 C-55.32653932 59.1143101 -54.65416525 57.22822247 -53.98828125 55.33984375 C-52.142525 50.96985167 -49.36241502 45.18120751 -45 43 C-44.3503125 41.88625 -44.3503125 41.88625 -43.6875 40.75 C-41.4119248 37.04165523 -38.43028127 34.36467203 -35.296875 31.375 C-32.41073879 28.5641543 -29.79967496 25.85952872 -27.5625 22.5 C-21.24299311 13.32652226 -9.76852205 5.06141039 0 0 Z " fill="#36363E" transform="translate(196,177)"/>
<path d="M0 0 C0.99 0.495 0.99 0.495 2 1 C0.31583984 1.97839844 0.31583984 1.97839844 -1.40234375 2.9765625 C-11.9965012 9.12861213 -11.9965012 9.12861213 -22.23828125 15.84375 C-24.09968235 17.06542345 -25.99560849 18.03359695 -28 19 C-33.16436479 21.73407548 -37.5604335 24.90493347 -42.08203125 28.609375 C-44 30 -44 30 -46 30 C-46.268125 30.639375 -46.53625 31.27875 -46.8125 31.9375 C-48 34 -48 34 -51 35 C-51.6889489 36.3219575 -52.3511312 37.65791524 -53 39 C-54.41660864 40.68188092 -55.87956086 42.32530731 -57.375 43.9375 C-59.71538327 46.4696538 -61.97881791 48.97287275 -64.1015625 51.69140625 C-66 54 -66 54 -69 56 C-69.309375 56.61875 -69.61875 57.2375 -69.9375 57.875 C-71.22387638 60.44775276 -72.97163578 61.97163578 -75 64 C-77.97623782 68.34034682 -79.93190568 73.18144521 -82 78 C-82.66 78 -83.32 78 -84 78 C-84.10441406 78.63808594 -84.20882812 79.27617187 -84.31640625 79.93359375 C-85.05308054 83.23810413 -86.05967356 86.37399304 -87.12011719 89.58618164 C-89.46666001 96.69519711 -91.60199573 103.61761028 -92.578125 111.06640625 C-92.94652739 113.62816734 -93.46172099 116.07785405 -94.0234375 118.6015625 C-99.16227243 144.04304625 -93.33260877 174.87722104 -79.96850586 197.06347656 C-79 199 -79 199 -79 202 C-78.34 202.33 -77.68 202.66 -77 203 C-76.375 205.5625 -76.375 205.5625 -76 208 C-78.64 209.98 -81.28 211.96 -84 214 C-84 212.35 -84 210.7 -84 209 C-89.94 213.455 -89.94 213.455 -96 218 C-96.66 217.67 -97.32 217.34 -98 217 C-97.02546875 216.32517578 -97.02546875 216.32517578 -96.03125 215.63671875 C-91.04166483 211.85457551 -91.04166483 211.85457551 -88.2265625 206.44140625 C-87.97835782 199.8639823 -90.11208626 194.62793488 -92.828125 188.73046875 C-94.21350872 185.50252468 -94.6448246 182.48071894 -95 179 C-95.30317139 178.245979 -95.60634277 177.49195801 -95.91870117 176.71508789 C-100.8447332 164.34606503 -100.37421088 151.12639014 -100.1875 138.0625 C-100.17240962 136.20378702 -100.158729 134.34506203 -100.14648438 132.48632812 C-100.11386108 127.99058188 -100.06232553 123.49542853 -100 119 C-99.34 119 -98.68 119 -98 119 C-97.95101562 117.84242188 -97.90203125 116.68484375 -97.8515625 115.4921875 C-97.77648522 113.9531033 -97.70093957 112.4140419 -97.625 110.875 C-97.5940625 110.11445313 -97.563125 109.35390625 -97.53125 108.5703125 C-97.29691252 104.03978792 -96.63087099 100.28103634 -95 96 C-94.63893903 94.33911955 -94.29537827 92.67381019 -94 91 C-93.34 91 -92.68 91 -92 91 C-91.896875 89.989375 -91.79375 88.97875 -91.6875 87.9375 C-90.97559694 83.86023701 -89.73824355 80.74390918 -88 77 C-87.566875 75.948125 -87.13375 74.89625 -86.6875 73.8125 C-85.22290619 70.41061278 -83.62252818 67.07918746 -82 63.75 C-81.505 62.73421875 -81.01 61.7184375 -80.5 60.671875 C-79.14349567 58.25560166 -77.97482596 56.87355283 -76 55 C-74.85019644 53.39245474 -73.72706975 51.76563777 -72.625 50.125 C-68.41681209 44.05431556 -63.4615739 39.47990778 -57.89453125 34.6875 C-55.86329827 32.93289539 -55.86329827 32.93289539 -53.6875 30.5 C-50.29465076 27.34386117 -46.5632636 25.06513524 -42.62109375 22.6484375 C-40.04801447 21.08276659 -40.04801447 21.08276659 -37.9453125 19.4453125 C-35.17664065 17.38826715 -32.16780607 15.88424198 -29.12109375 14.28125 C-27.05469577 13.03303907 -25.66374316 11.72808682 -24 10 C-19.28059998 6.91794284 -14.85730722 5.22587288 -9.4375 3.73046875 C-7.18243497 3.05467202 -5.13513719 2.23305275 -3 1.25 C-2.01 0.8375 -1.02 0.425 0 0 Z " fill="#9391A5" transform="translate(222,161)"/>
<path d="M0 0 C0.33 0.66 0.66 1.32 1 2 C-0.10493228 4.32342704 -1.27039261 6.55603381 -2.5 8.8125 C-12.75095857 28.50465475 -18.58346987 50.81710028 -19 73 C-19.01514648 73.70543945 -19.03029297 74.41087891 -19.04589844 75.13769531 C-19.13684045 80.09514422 -19.10612966 85.04312042 -19 90 C-18.98324219 91.07507813 -18.96648437 92.15015625 -18.94921875 93.2578125 C-17.28011401 130.55038131 3.00638666 165.37431616 29.5625 190.375 C34.05125129 194.39262871 38.77900708 197.59869503 43.98046875 200.625 C44.64691406 201.07875 45.31335938 201.5325 46 202 C46 202.66 46 203.32 46 204 C28.45314281 197.77583179 12.73205617 181.68701761 2 167 C1.59974609 166.4529541 1.19949219 165.9059082 0.78710938 165.34228516 C-21.93968791 133.8791115 -29.11748805 96.15059403 -25.31640625 57.8984375 C-25 56 -25 56 -24 54 C-23.77857745 52.04310341 -23.5732432 50.08438048 -23.375 48.125 C-21.51055835 34.8289453 -16.47679048 22.27483713 -10.375 10.375 C-10.015271 9.65852295 -9.65554199 8.9420459 -9.28491211 8.20385742 C-7.61071654 5.09713807 -6.4678389 3.24133476 -3.2890625 1.6015625 C-2.53367188 1.40304688 -1.77828125 1.20453125 -1 1 C-0.67 0.67 -0.34 0.34 0 0 Z " fill="#9291A4" transform="translate(171,213)"/>
<path d="M0 0 C0 3.73447543 -1.0271581 4.68300337 -3.25 7.625 C-9.17765243 15.84451804 -12.11854197 23.23534075 -12.13371277 33.41165161 C-12.13797775 34.70682205 -12.14224274 36.00199249 -12.14663696 37.33641052 C-12.14628747 38.76480106 -12.14582595 40.19319157 -12.14526367 41.62158203 C-12.14825716 43.13154686 -12.15166013 44.64151093 -12.15544128 46.151474 C-12.16426893 50.24889736 -12.16661896 54.34629983 -12.16725707 58.44373178 C-12.16796859 61.0072479 -12.17010492 63.57075873 -12.17275429 66.13427353 C-12.18200558 75.08821702 -12.18608969 84.04214564 -12.18530273 92.99609375 C-12.18470289 101.32400019 -12.19523684 109.65184166 -12.2110464 117.97973168 C-12.22415645 125.14258093 -12.22948514 132.30540904 -12.22884732 139.46827018 C-12.22859324 143.7403459 -12.23139469 148.01236394 -12.24202538 152.28442764 C-12.2517641 156.30800731 -12.25174628 160.33147486 -12.24450874 164.35505867 C-12.24346984 165.82432152 -12.24578405 167.29359156 -12.2518692 168.76284218 C-12.31813122 185.88351876 -9.52770413 198.85961188 2 212 C4.99368166 214.91921197 8.12249027 217.35951511 12 219 C12 219.66 12 220.32 12 221 C1.0792295 217.58725922 -7.23799144 207.80021537 -12.375 198 C-17.1980682 188.29997457 -17.29910084 178.74790717 -17.29052734 168.13964844 C-17.2965215 166.65204026 -17.30332907 165.16443518 -17.31088257 163.67683411 C-17.32846023 159.65801047 -17.33323447 155.63927215 -17.33451414 151.62041378 C-17.33594106 149.10308649 -17.34022088 146.58578052 -17.34550858 144.06845856 C-17.36398214 135.26779314 -17.37218261 126.46718808 -17.37060547 117.66650391 C-17.36940504 109.49297661 -17.39049491 101.31971377 -17.4220928 93.14625335 C-17.44833735 86.10387626 -17.45896934 79.06158511 -17.45769465 72.01915956 C-17.45718738 67.82413808 -17.46273907 63.62935186 -17.48405075 59.43437958 C-17.50357161 55.48450007 -17.50346436 51.53507692 -17.48901749 47.58518028 C-17.48694526 46.14577496 -17.49153421 44.70634001 -17.5037384 43.26698494 C-17.62221168 28.31092204 -14.29377195 15.3645215 -4.21484375 3.984375 C-2.85582318 2.60929036 -1.4352966 1.29526767 0 0 Z " fill="#8C8B9D" transform="translate(48,97)"/>
<path d="M0 0 C12.84386447 1.6301828 24.86505841 12.46364433 34 21 C34.51546387 21.47308594 35.03092773 21.94617188 35.56201172 22.43359375 C51.35739006 37.03677473 63.13782225 55.61830788 70 76 C70.34546875 76.96421875 70.6909375 77.9284375 71.046875 78.921875 C82.46030861 112.81099326 80.34437121 150.37133697 66 183 C65.54238281 184.12277344 65.08476562 185.24554688 64.61328125 186.40234375 C62.74508359 190.56846976 60.57506913 194.45048092 58.25 198.375 C57.805354 199.12595947 57.36070801 199.87691895 56.90258789 200.65063477 C53.1339885 206.92800377 49.2748742 213.12199146 43.73167419 217.99343872 C38.58671787 222.76664479 36.20235711 226.73075341 35.91821289 233.77294922 C35.85962574 236.78671908 35.91074174 239.79135186 35.97265625 242.8046875 C35.97208017 244.41749758 35.96724014 246.0303112 35.95835876 247.64309692 C35.9451437 251.8607332 35.98355139 256.07623598 36.03503418 260.29351807 C36.09843526 266.25251476 36.09213533 272.21190242 36.09165955 278.1711731 C36.0914382 281.3390126 36.11167634 284.50569084 36.14820862 287.67330933 C36.15760608 289.11667806 36.16688479 290.56004758 36.17602539 292.00341797 C36.18984756 293.26121063 36.20366974 294.5190033 36.21791077 295.81491089 C36.01165351 298.82966666 35.59534539 300.47919922 34 303 C33.34 303 32.68 303 32 303 C31.96847676 293.21143032 31.97465178 283.42367085 32.02846622 273.63517666 C32.05228311 269.08948016 32.06329313 264.54451579 32.04467773 259.9987793 C32.02717686 255.60868645 32.04378394 251.21990649 32.08367729 246.82997322 C32.09294512 245.15833867 32.09008672 243.48658991 32.07469368 241.81500053 C31.96572549 228.70480926 31.96572549 228.70480926 34.52732849 224.48248291 C36.26124127 222.74376666 37.9923281 221.40063994 40 220 C62.58483258 195.21454123 75.30991664 160.16221593 75.125 126.8125 C75.11774902 125.42840942 75.11774902 125.42840942 75.11035156 124.01635742 C74.78035863 86.20246728 61.98128424 53.62628176 36 26 C35.46246094 25.39800781 34.92492187 24.79601562 34.37109375 24.17578125 C24.8714237 13.96185029 12.32556874 7.18004707 0 1 C0 0.67 0 0.34 0 0 Z " fill="#B6B5C5" transform="translate(407,165)"/>
<path d="M0 0 C0.99 0.495 0.99 0.495 2 1 C0.0891381 2.48722742 -1.82803755 3.9647404 -3.75 5.4375 C-4.28882813 5.85837891 -4.82765625 6.27925781 -5.3828125 6.71289062 C-8.24410371 8.89375283 -10.49092444 10.28356374 -14 11 C-16.12832503 12.19250098 -16.12832503 12.19250098 -18.25 13.6875 C-19.02988281 14.21988281 -19.80976563 14.75226563 -20.61328125 15.30078125 C-23.59401209 17.4229055 -26.49716592 19.63413073 -29.37109375 21.8984375 C-31 23 -31 23 -33 23 C-33.268125 23.639375 -33.53625 24.27875 -33.8125 24.9375 C-35 27 -35 27 -38 28 C-38.6889489 29.3219575 -39.3511312 30.65791524 -40 32 C-41.41660864 33.68188092 -42.87956086 35.32530731 -44.375 36.9375 C-46.71538327 39.4696538 -48.97881791 41.97287275 -51.1015625 44.69140625 C-53 47 -53 47 -56 49 C-56.309375 49.61875 -56.61875 50.2375 -56.9375 50.875 C-58.22387638 53.44775276 -59.97163578 54.97163578 -62 57 C-64.97623782 61.34034682 -66.93190568 66.18144521 -69 71 C-69.66 71 -70.32 71 -71 71 C-71.10441406 71.63808594 -71.20882812 72.27617187 -71.31640625 72.93359375 C-72.05308054 76.23810413 -73.05967356 79.37399304 -74.12011719 82.58618164 C-76.46666001 89.69519711 -78.60199573 96.61761028 -79.578125 104.06640625 C-79.94652739 106.62816734 -80.46172099 109.07785405 -81.0234375 111.6015625 C-86.16227243 137.04304625 -80.33260877 167.87722104 -66.96850586 190.06347656 C-66 192 -66 192 -66 195 C-65.34 195.33 -64.68 195.66 -64 196 C-63.375 198.5625 -63.375 198.5625 -63 201 C-64.485 201.99 -64.485 201.99 -66 203 C-66.103125 202.360625 -66.20625 201.72125 -66.3125 201.0625 C-66.539375 200.381875 -66.76625 199.70125 -67 199 C-67.99 198.67 -68.98 198.34 -70 198 C-70.0825 197.34 -70.165 196.68 -70.25 196 C-71.03750596 192.84997617 -72.33468844 190.24083987 -73.8203125 187.3671875 C-77.60528797 179.7721705 -80.36389842 172.3168497 -82 164 C-82.33 163.67 -82.66 163.34 -83 163 C-85.95952012 136.10855789 -86.59952743 106.88202828 -76.34765625 81.5703125 C-74.89951113 77.73377731 -74.15839072 74.08691129 -73.4921875 70.0625 C-72.69534155 66.72333603 -71.20030726 64.61286487 -69 62 C-68.34 62 -67.68 62 -67 62 C-66.90074219 61.44699219 -66.80148438 60.89398438 -66.69921875 60.32421875 C-65.222671 55.41614102 -61.79479786 51.24970292 -59 47 C-58.47664063 46.16082031 -57.95328125 45.32164062 -57.4140625 44.45703125 C-54.37712755 39.66060224 -51.44576243 36.49985553 -47 33 C-46.175 31.989375 -45.35 30.97875 -44.5 29.9375 C-41.90298022 26.88600176 -39.3580342 25.14342609 -36 23 C-35.071875 22.071875 -35.071875 22.071875 -34.125 21.125 C-28.6751707 15.6751707 -23.24040201 12.49669035 -16 10 C-15.34 9.34 -14.68 8.68 -14 8 C-12.31862371 7.30766859 -10.63698132 6.61596508 -8.953125 5.9296875 C-5.66099523 4.36263373 -2.90397389 2.19279661 0 0 Z " fill="#626171" transform="translate(209,168)"/>
<path d="M0 0 C12.84386447 1.6301828 24.86505841 12.46364433 34 21 C34.51546387 21.47308594 35.03092773 21.94617188 35.56201172 22.43359375 C51.35739006 37.03677473 63.13782225 55.61830788 70 76 C70.34546875 76.96421875 70.6909375 77.9284375 71.046875 78.921875 C80.09492975 105.78763757 80.73953449 134.7568386 73 162 C72.67 162 72.34 162 72 162 C72.39702296 157.55961165 72.82132207 153.14026529 73.51171875 148.734375 C75.21236352 137.78270511 75.28535742 127.05928525 75 116 C74.97035156 114.73929687 74.94070313 113.47859375 74.91015625 112.1796875 C73.34769246 79.32983913 58.21734183 49.62402641 36 26 C35.46246094 25.39800781 34.92492187 24.79601562 34.37109375 24.17578125 C24.8714237 13.96185029 12.32556874 7.18004707 0 1 C0 0.67 0 0.34 0 0 Z " fill="#A1A0B1" transform="translate(407,165)"/>
<path d="M0 0 C6.93 0 13.86 0 21 0 C21.02578125 3.444375 21.0515625 6.88875 21.078125 10.4375 C21.11658772 13.79028333 21.16173452 17.14291507 21.20751953 20.49560547 C21.23566532 22.81747139 21.25691149 25.13943199 21.27099609 27.46142578 C21.29251355 30.80810799 21.33921124 34.15365949 21.390625 37.5 C21.39185364 38.5305249 21.39308228 39.5610498 21.39434814 40.62280273 C21.52706828 47.2216643 22.756794 51.26586972 26 57 C26 57.99 26 58.98 26 60 C24.88210735 59.16387755 23.78133002 58.30486418 22.6875 57.4375 C21.76517578 56.72400391 21.76517578 56.72400391 20.82421875 55.99609375 C15.49550738 50.16531964 15.58762315 43.7348336 15.70703125 36.25390625 C15.71127609 35.24279282 15.71552094 34.23167938 15.71989441 33.18992615 C15.73660246 29.98050599 15.77424047 26.77172835 15.8125 23.5625 C15.82755699 21.37826432 15.84124362 19.19401873 15.85351562 17.00976562 C15.88648027 11.6729319 15.93820842 6.33657465 16 1 C10.72 1 5.44 1 0 1 C0 0.67 0 0.34 0 0 Z " fill="#807F91" transform="translate(77,323)"/>
<path d="M0 0 C0.99 0.495 0.99 0.495 2 1 C-5.55550438 8.72809205 -5.55550438 8.72809205 -9.25 11.75 C-11.98075923 13.89709716 -11.98075923 13.89709716 -14.125 16.1875 C-16 18 -16 18 -17.828125 18.82421875 C-20.62663063 20.33923709 -22.43840061 22.32139195 -24.625 24.625 C-26.04510127 26.12058838 -27.49594968 27.58886398 -29 29 C-29.66 29 -30.32 29 -31 29 C-31.226875 29.680625 -31.45375 30.36125 -31.6875 31.0625 C-33.34615628 34.77473073 -35.57169076 37.75776994 -38 41 C-38.45503906 41.64195312 -38.91007812 42.28390625 -39.37890625 42.9453125 C-41.95613412 46.52674632 -44.57646047 49.57756408 -47.85546875 52.53515625 C-52.59542357 57.22181038 -54.9591167 62.41146832 -57.5 68.5 C-57.94085938 69.51320313 -58.38171875 70.52640625 -58.8359375 71.5703125 C-59.90774142 74.04012154 -60.96176938 76.5159371 -62 79 C-63.31600093 75.05199722 -62.07613159 72.60059694 -60.6875 68.875 C-60.46126953 68.22917969 -60.23503906 67.58335937 -60.00195312 66.91796875 C-58.26051009 62.13025504 -58.26051009 62.13025504 -56 61 C-55.32653932 59.1143101 -54.65416525 57.22822247 -53.98828125 55.33984375 C-52.142525 50.96985167 -49.36241502 45.18120751 -45 43 C-44.3503125 41.88625 -44.3503125 41.88625 -43.6875 40.75 C-41.4119248 37.04165523 -38.43028127 34.36467203 -35.296875 31.375 C-32.41073879 28.5641543 -29.79967496 25.85952872 -27.5625 22.5 C-21.24299311 13.32652226 -9.76852205 5.06141039 0 0 Z " fill="#42424F" transform="translate(196,177)"/>
<path d="M0 0 C18.66435554 -2.25756949 18.66435554 -2.25756949 25.125 2.578125 C28.14486879 5.28646876 30.83474623 8.28101367 33.49169922 11.34179688 C35.67433686 13.74135577 38.13642786 15.69256876 40.6875 17.6875 C45.4367875 21.49391425 49.93830283 25.51363355 54.4140625 29.63671875 C57.36686902 32.3352806 60.38797589 34.9436719 63.44140625 37.52734375 C65 39 65 39 67 42 C61.13465739 41.62932779 58.57832666 40.30476577 54.4375 36.1875 C53.39937069 35.18128245 52.35891044 34.17746545 51.31640625 33.17578125 C50.77773926 32.65322754 50.23907227 32.13067383 49.68408203 31.59228516 C46.84425032 28.90724857 43.85919941 26.39706438 40.875 23.875 C36.7437228 20.36304808 32.64911353 16.82278047 28.625 13.1875 C27.82578125 12.47980469 27.0265625 11.77210938 26.203125 11.04296875 C24 9 24 9 22.171875 6.92578125 C17.67612949 2.10751487 13.86974541 1.36840351 7.5 1.0625 C4.99505088 0.98968492 2.50679834 0.97870438 0 1 C0 0.67 0 0.34 0 0 Z " fill="#ABAABB" transform="translate(352,431)"/>
<path d="M0 0 C0.33 0 0.66 0 1 0 C1.33 13.86 1.66 27.72 2 42 C2.66 42 3.32 42 4 42 C4.04898438 42.59167969 4.09796875 43.18335938 4.1484375 43.79296875 C4.22320312 44.58316406 4.29796875 45.37335938 4.375 46.1875 C4.44460937 46.96480469 4.51421875 47.74210937 4.5859375 48.54296875 C5.04207111 51.24964839 5.95397271 53.46689661 7 56 C7.47946221 57.78612846 7.93737494 59.578163 8.375 61.375 C9.65550886 66.19954348 11.39450451 69.76606983 14 74 C15.54437324 77.31754252 16.85975233 80.28317855 17.5625 83.875 C17.7790625 84.926875 17.7790625 84.926875 18 86 C18.66 86.33 19.32 86.66 20 87 C20.625 89.5625 20.625 89.5625 21 92 C19.35 92.99 17.7 93.98 16 95 C16 93.35 16 91.7 16 90 C10.06 94.455 10.06 94.455 4 99 C3.34 98.67 2.68 98.34 2 98 C2.6496875 97.55011719 3.299375 97.10023438 3.96875 96.63671875 C8.95833517 92.85457551 8.95833517 92.85457551 11.7734375 87.44140625 C12.02164218 80.8639823 9.88791374 75.62793488 7.171875 69.73046875 C5.78649128 66.50252468 5.3551754 63.48071894 5 60 C4.69682861 59.245979 4.39365723 58.49195801 4.08129883 57.71508789 C-0.8447332 45.34606503 -0.37421088 32.12639014 -0.1875 19.0625 C-0.17240962 17.20378702 -0.158729 15.34506203 -0.14648438 13.48632812 C-0.11386108 8.99058188 -0.06232553 4.49542853 0 0 Z " fill="#9493A6" transform="translate(122,280)"/>
<path d="M0 0 C0.66 0.33 1.32 0.66 2 1 C-2.57428602 6.30843069 -7.23181315 11.30833158 -12.5 15.9375 C-20.88978823 23.43799408 -27.22699579 31.92714545 -32.98046875 41.56640625 C-35.41597638 44.50126361 -37.34260457 45.12574282 -41 46 C-41 35.81187333 -27.62056336 24.02760691 -21 17 C-14.56447495 10.56447495 -7.45347758 5.20043017 0 0 Z " fill="#AAA9BA" transform="translate(208,170)"/>
<path d="M0 0 C-1.175625 0.433125 -2.35125 0.86625 -3.5625 1.3125 C-6.28932469 2.3320535 -8.94866196 3.40890602 -11.625 4.5625 C-15 6 -15 6 -18.3125 6.9375 C-21.12307926 7.68833853 -21.12307926 7.68833853 -21.85546875 9.890625 C-23.40097924 12.7390061 -25.11431123 13.39015056 -28 14.8125 C-34.49975014 18.17767944 -40.41983437 22.17082752 -46.16015625 26.70703125 C-48 28 -48 28 -50 28 C-50.2371875 28.57234375 -50.474375 29.1446875 -50.71875 29.734375 C-52.27593238 32.4879292 -54.12492797 34.16795634 -56.5 36.25 C-57.2940625 36.95640625 -58.088125 37.6628125 -58.90625 38.390625 C-61 40 -61 40 -63 40 C-63.268125 40.763125 -63.53625 41.52625 -63.8125 42.3125 C-64.94424112 44.87380884 -65.91223401 46.19692938 -68 48 C-65.99880113 39.99520452 -60.91609675 34.42646527 -54.63671875 29.359375 C-52.81521239 27.90732453 -52.81521239 27.90732453 -50.75 25.5625 C-46.92292187 21.99635902 -40.45133462 16 -35 16 C-35 15.34 -35 14.68 -35 14 C-33.390625 12.7109375 -33.390625 12.7109375 -31.25 11.375 C-30.55390625 10.92898437 -29.8578125 10.48296875 -29.140625 10.0234375 C-27 9 -27 9 -23 9 C-22.7215625 8.0409375 -22.7215625 8.0409375 -22.4375 7.0625 C-21 5 -21 5 -17.375 4.25 C-16.26125 4.1675 -15.1475 4.085 -14 4 C-14 3.34 -14 2.68 -14 2 C-12.42085985 1.46658816 -10.83645613 0.94874237 -9.25 0.4375 C-8.36828125 0.14746094 -7.4865625 -0.14257812 -6.578125 -0.44140625 C-3.92165684 -1.01697435 -2.52968894 -0.89248371 0 0 Z " fill="#A1A0B3" transform="translate(217,164)"/>
<path d="M0 0 C-0.99 0.33 -1.98 0.66 -3 1 C-3 1.66 -3 2.32 -3 3 C-5.59396953 4.72045124 -8.23934628 6.27024486 -10.93945312 7.81445312 C-14.87787369 10.13300354 -17.84864337 12.7118566 -21 16 C-22.41549276 17.08486672 -23.83214175 18.16822667 -25.25 19.25 C-30.42269771 23.72204802 -33.08499563 29.19959568 -35.99316406 35.27246094 C-36.3434668 35.99594727 -36.69376953 36.71943359 -37.0546875 37.46484375 C-37.35874512 38.120896 -37.66280273 38.77694824 -37.97607422 39.45288086 C-39 41 -39 41 -42 42 C-43.17082878 44.92914165 -43.17082878 44.92914165 -44 48 C-44.33 48.66 -44.66 49.32 -45 50 C-46.485 50.495 -46.485 50.495 -48 51 C-49.13678329 53.26044171 -49.13678329 53.26044171 -50 55.9375 C-51.6728972 60.78193146 -51.6728972 60.78193146 -55 63 C-50.41864722 45.89628295 -38.89245848 31.00991432 -27.04296875 18.25390625 C-24.96054264 16.02303485 -24.96054264 16.02303485 -23.13671875 13.5390625 C-20.60254139 10.52770001 -17.73899362 8.18387072 -14.625 5.8125 C-14.07328125 5.37486328 -13.5215625 4.93722656 -12.953125 4.48632812 C-4.31262286 -2.15631143 -4.31262286 -2.15631143 0 0 Z " fill="#BAB9C9" transform="translate(185,177)"/>
<path d="M0 0 C0.66 0 1.32 0 2 0 C1.49390838 5.59169517 0.34770533 10.20314419 -1.875 15.375 C-8.4890143 30.89633004 -8.4154196 47.55137447 -8.1875 64.125 C-8.17240134 66.06639568 -8.15872225 68.00780293 -8.14648438 69.94921875 C-8.11394568 74.63310688 -8.06246056 79.31641929 -8 84 C-8.66 84 -9.32 84 -10 84 C-11.25612124 80.23163627 -11.16239748 76.69979405 -11.16796875 72.7734375 C-11.17129715 71.95235504 -11.17462555 71.13127258 -11.17805481 70.28530884 C-11.18312303 68.53851887 -11.18546317 66.79171919 -11.18530273 65.04492188 C-11.18745192 62.43341837 -11.20550259 59.82236409 -11.22460938 57.2109375 C-11.25297321 48.95676772 -11.05776109 40.80743983 -10.11328125 32.6015625 C-10.03554977 31.91967865 -9.9578183 31.2377948 -9.87773132 30.5352478 C-9.35457873 26.48567918 -8.37532785 22.83678719 -7 19 C-6.63893903 17.33911955 -6.29537827 15.67381019 -6 14 C-5.34 14 -4.68 14 -4 14 C-3.8453125 12.4840625 -3.8453125 12.4840625 -3.6875 10.9375 C-2.96295233 6.78781792 -1.77730734 3.78643737 0 0 Z " fill="#858497" transform="translate(134,238)"/>
<path d="M0 0 C9.83345103 9.83345103 10.37391929 35.86006262 10.375 48.875 C10.20559123 62.26951184 8.67172709 75.07552065 5 88 C4.67 88 4.34 88 4 88 C4.39702296 83.55961165 4.82132207 79.14026529 5.51171875 74.734375 C7.21236352 63.78270511 7.28535742 53.05928525 7 42 C6.95552734 40.10894531 6.95552734 40.10894531 6.91015625 38.1796875 C6.40607046 27.58159119 4.32780097 16.7659267 0.87109375 6.71875 C0 4 0 4 0 0 Z " fill="#9493A4" transform="translate(475,239)"/>
<path d="M0 0 C0.66 0 1.32 0 2 0 C2 24.75 2 49.5 2 75 C0.515 75.495 0.515 75.495 -1 76 C-0.505 38.38 -0.505 38.38 0 0 Z " fill="#9494A4" transform="translate(440,392)"/>
<path d="M0 0 C0.99 0.495 0.99 0.495 2 1 C2.6849717 3.62622338 3.27109908 6.21903372 3.8125 8.875 C5.8206572 18.01422307 8.06564818 26.37572082 15 33 C16.63469033 35.69723904 17 36.78120986 17 40 C17.66 40.33 18.32 40.66 19 41 C19.625 43.5625 19.625 43.5625 20 46 C19.01 46.66 18.02 47.32 17 48 C16.896875 47.360625 16.79375 46.72125 16.6875 46.0625 C16.460625 45.381875 16.23375 44.70125 16 44 C15.01 43.67 14.02 43.34 13 43 C12.9175 42.34 12.835 41.68 12.75 41 C11.96249404 37.84997617 10.66531156 35.24083987 9.1796875 32.3671875 C5.39471203 24.7721705 2.63610158 17.3168497 1 9 C0.67 8.67 0.34 8.34 0 8 C-0.14115161 5.32941149 -0.04247107 2.67567762 0 0 Z " fill="#5F5F6E" transform="translate(126,323)"/>
<path d="M0 0 C0.66 0.33 1.32 0.66 2 1 C0.0891381 2.48722742 -1.82803755 3.9647404 -3.75 5.4375 C-4.28882813 5.85837891 -4.82765625 6.27925781 -5.3828125 6.71289062 C-8.24811983 8.89681389 -10.49318424 10.2682058 -14 11 C-15.53438245 11.9022601 -17.03379102 12.86572601 -18.5 13.875 C-19.2528125 14.38804687 -20.005625 14.90109375 -20.78125 15.4296875 C-22.23498345 16.45856223 -23.66164587 17.52705251 -25.0546875 18.63671875 C-27 20 -27 20 -30.625 20.9375 C-34.04420948 21.58725971 -34.04420948 21.58725971 -35 23.8125 C-35.33 24.534375 -35.66 25.25625 -36 26 C-37.67758227 27.18417572 -39.35772737 28.36514336 -41.05859375 29.515625 C-46.16037727 33.41638504 -49.75417205 38.5333424 -53 44 C-53.66 44 -54.32 44 -55 44 C-55.2475 44.5775 -55.495 45.155 -55.75 45.75 C-57.16683317 48.3002997 -58.87627537 50.01785701 -61 52 C-58.01817095 44.01094857 -53.64114859 38.22813825 -47 33 C-46.175 31.989375 -45.35 30.97875 -44.5 29.9375 C-41.90298022 26.88600176 -39.3580342 25.14342609 -36 23 C-35.38125 22.38125 -34.7625 21.7625 -34.125 21.125 C-28.6751707 15.6751707 -23.24040201 12.49669035 -16 10 C-15.34 9.34 -14.68 8.68 -14 8 C-12.31862371 7.30766859 -10.63698132 6.61596508 -8.953125 5.9296875 C-5.66099523 4.36263373 -2.90397389 2.19279661 0 0 Z " fill="#6F6E82" transform="translate(209,168)"/>
<path d="M0 0 C0.33 0 0.66 0 1 0 C0.52674829 4.2592654 -0.06345175 8.37252929 -1.015625 12.55078125 C-5.42405882 34.41983375 -1.01462147 57.26567383 6.80102539 77.7824707 C7.24949829 78.96329224 7.24949829 78.96329224 7.70703125 80.16796875 C7.9800708 80.86172607 8.25311035 81.5554834 8.53442383 82.27026367 C9 84 9 84 8 86 C3.99538746 79.19215868 1.64493691 72.94969648 -0.0625 65.25 C-0.78142572 60.22522379 -0.78142572 60.22522379 -3 56 C-4.47842452 47.96236808 -4.15378463 39.61858226 -4.13037109 31.47607422 C-4.12497706 29.240492 -4.13036351 27.00510766 -4.13671875 24.76953125 C-4.13605844 23.33072873 -4.13477825 21.89192633 -4.1328125 20.453125 C-4.13168457 19.16567383 -4.13055664 17.87822266 -4.12939453 16.55175781 C-4.00995435 13.27323753 -3.6240758 10.21643832 -3 7 C-2.34 7 -1.68 7 -1 7 C-0.67 4.69 -0.34 2.38 0 0 Z " fill="#51505C" transform="translate(129,267)"/>
<path d="M0 0 C0.66 0.33 1.32 0.66 2 1 C-0.06069917 2.12840628 -2.12343096 3.25278771 -4.1875 4.375 C-5.33605469 5.00148437 -6.48460937 5.62796875 -7.66796875 6.2734375 C-11 8 -11 8 -13.70703125 9.0703125 C-15.96129484 9.98430694 -17.58475732 11.01839717 -19.5 12.5 C-22.24260316 14.5302387 -24.78497055 15.81551547 -28 17 C-28.825 17.495 -29.65 17.99 -30.5 18.5 C-33 20 -33 20 -35.3125 20.8125 C-38.71199761 22.3146036 -41.33768023 24.44579414 -44.23046875 26.7578125 C-46 28 -46 28 -48 28 C-48.2475 28.61875 -48.495 29.2375 -48.75 29.875 C-50.20628639 32.35068687 -51.37812506 32.95125002 -54 34 C-54 32 -54 32 -52.6015625 30.51953125 C-45.23882422 24.16080274 -37.56985736 18.60406441 -28.91015625 14.140625 C-26.93223609 12.95953566 -25.59566544 11.64769801 -24 10 C-19.28059998 6.91794284 -14.85730722 5.22587288 -9.4375 3.73046875 C-7.18243497 3.05467202 -5.13513719 2.23305275 -3 1.25 C-2.01 0.8375 -1.02 0.425 0 0 Z " fill="#838297" transform="translate(222,161)"/>
<path d="M0 0 C18.70187302 -2.26210746 18.70187302 -2.26210746 25.44140625 2.859375 C28.92736192 5.9808063 31.95944269 9.45032612 35 13 C35.66 13.33 36.32 13.66 37 14 C36.67 15.65 36.34 17.3 36 19 C32.13083386 16.24693948 28.61980019 13.66014221 25.359375 10.1875 C19.72031112 4.18177932 15.71794754 1.0801758 7.25 0.8125 C4.81673909 0.79360992 2.43196333 0.86729134 0 1 C0 0.67 0 0.34 0 0 Z " fill="#9D9DAD" transform="translate(352,431)"/>
<path d="M0 0 C-0.93457031 0.31710938 -1.86914062 0.63421875 -2.83203125 0.9609375 C-17.33942457 6.05190768 -31.59181212 12.83359093 -44 22 C-44 19 -44 19 -42.578125 17.109375 C-38.95050158 14.14131948 -34.96085656 12.26989526 -30.75 10.25 C-29.90953125 9.83878906 -29.0690625 9.42757812 -28.203125 9.00390625 C-26.13886376 7.99523315 -24.07123857 6.99424543 -22 6 C-22.33 5.34 -22.66 4.68 -23 4 C-18.51324598 2.34698536 -14.05080747 1.34758209 -9.3671875 0.46484375 C-7.02496418 0.04232103 -7.02496418 0.04232103 -4.8828125 -0.62109375 C-3 -1 -3 -1 0 0 Z " fill="#CCCBD8" transform="translate(253,152)"/>
<path d="M0 0 C0.66 0.33 1.32 0.66 2 1 C1.38125 1.2475 0.7625 1.495 0.125 1.75 C-2.38710296 3.22770762 -2.76107344 4.43955177 -4 7 C-4.99 7.33 -5.98 7.66 -7 8 C-7.6889489 9.3219575 -8.3511312 10.65791524 -9 12 C-10.41660864 13.68188092 -11.87956086 15.32530731 -13.375 16.9375 C-15.71538327 19.4696538 -17.97881791 21.97287275 -20.1015625 24.69140625 C-22 27 -22 27 -25 29 C-25.495 30.0209375 -25.495 30.0209375 -26 31.0625 C-27 33 -27 33 -30 34 C-28.18690951 28.71181939 -25.67111564 25.11407709 -21 22 C-19.97657068 20.34761681 -18.97888927 18.67915263 -18 17 C-13.85361455 11.75734207 -9.72658237 7.51403918 -4 4 C-2.63113049 2.70317626 -1.2830709 1.38176866 0 0 Z " fill="#5F5E6F" transform="translate(178,188)"/>
<path d="M0 0 C0.66 0.33 1.32 0.66 2 1 C0.35 3.97 -1.3 6.94 -3 10 C-3.66 10 -4.32 10 -5 10 C-5.309375 10.94875 -5.61875 11.8975 -5.9375 12.875 C-7 16 -7 16 -8 18 C-8.99 18.33 -9.98 18.66 -11 19 C-12.13678329 21.26044171 -12.13678329 21.26044171 -13 23.9375 C-14.6728972 28.78193146 -14.6728972 28.78193146 -18 31 C-16.32837955 24.75928364 -13.74952213 19.36913649 -10.625 13.75 C-10.06244507 12.72229492 -10.06244507 12.72229492 -9.48852539 11.67382812 C-7.11735342 7.49869174 -4.57876872 4.27131437 -1 1 C-0.67 0.67 -0.34 0.34 0 0 Z " fill="#B4B3C3" transform="translate(148,209)"/>
<path d="M0 0 C1.1875 1.6484375 1.1875 1.6484375 2 4 C0.875 6.7265625 0.875 6.7265625 -1 9.625 C-1.8971875 11.06746094 -1.8971875 11.06746094 -2.8125 12.5390625 C-5.36698317 15.41285607 -7.30925128 16.10876807 -11 17 C-11 13.20340957 -9.78402135 11.67922665 -7.75 8.5 C-7.14671875 7.5409375 -6.5434375 6.581875 -5.921875 5.59375 C-4.11710758 3.15804763 -2.51746207 1.64860348 0 0 Z M-2 3 C-2 3.99 -2 4.98 -2 6 C-1.34 5.01 -0.68 4.02 0 3 C-0.66 3 -1.32 3 -2 3 Z " fill="#9D9CAE" transform="translate(178,199)"/>
<path d="M0 0 C2.36008817 3.54013225 2.23463644 5.01121955 2.1953125 9.19921875 C2.18886719 10.40771484 2.18242187 11.61621094 2.17578125 12.86132812 C2.15902344 14.12396484 2.14226562 15.38660156 2.125 16.6875 C2.11597656 17.96173828 2.10695312 19.23597656 2.09765625 20.54882812 C2.07405641 23.69940627 2.04113194 26.84960983 2 30 C1.01 30.33 0.02 30.66 -1 31 C-1.19148936 9.27659574 -1.19148936 9.27659574 0 0 Z " fill="#828294" transform="translate(146,269)"/>
<path d="M0 0 C0.66 0.33 1.32 0.66 2 1 C1.6596875 1.6084375 1.319375 2.216875 0.96875 2.84375 C-2.2064375 8.58611037 -5.24679863 14.38499522 -8.1875 20.25 C-8.68636719 21.2409668 -8.68636719 21.2409668 -9.1953125 22.25195312 C-11.28500474 26.44392611 -13.19207173 30.67888352 -15 35 C-16.31600093 31.05199722 -15.07613159 28.60059694 -13.6875 24.875 C-13.46126953 24.22917969 -13.23503906 23.58335937 -13.00195312 22.91796875 C-11.26051009 18.13025504 -11.26051009 18.13025504 -9 17 C-8.32724496 15.11628587 -7.65626589 13.23191074 -6.99609375 11.34375 C-5.23955995 7.21072929 -2.60317683 3.63939284 0 0 Z " fill="#51505D" transform="translate(149,221)"/>
<path d="M0 0 C0 0.99 0 1.98 0 3 C0.66 3.33 1.32 3.66 2 4 C-1.3 6.64 -4.6 9.28 -8 12 C-8.66 11.67 -9.32 11.34 -10 11 C-10.625 8.9375 -10.625 8.9375 -11 7 C-9.73742767 5.82439821 -8.46462916 4.65977135 -7.1875 3.5 C-6.12595703 2.52546875 -6.12595703 2.52546875 -5.04296875 1.53125 C-3 0 -3 0 0 0 Z " fill="#42424C" transform="translate(155,356)"/>
<path d="M0 0 C0.33 0 0.66 0 1 0 C1 22.77 1 45.54 1 69 C0.67 69 0.34 69 0 69 C0 46.23 0 23.46 0 0 Z " fill="#E5E5EC" transform="translate(450,393)"/>
<path d="M0 0 C2 3 2 3 1.75 4.91796875 C0.85655518 7.62156999 -0.05068781 10.31527852 -1 13 C-1.31831787 13.93344238 -1.31831787 13.93344238 -1.64306641 14.88574219 C-4.51740668 23.28264551 -7.46373431 30.93242677 -13 38 C-13.33 37.34 -13.66 36.68 -14 36 C-12.8590504 33.38306005 -11.65717621 30.85926542 -10.375 28.3125 C-5.92340948 19.1978952 -2.32296301 9.90315809 0 0 Z " fill="#B2B1C2" transform="translate(478,325)"/>
<path d="M0 0 C0.66 0.33 1.32 0.66 2 1 C0.98679688 1.70576172 0.98679688 1.70576172 -0.046875 2.42578125 C-0.93890625 3.04839844 -1.8309375 3.67101562 -2.75 4.3125 C-3.63171875 4.92738281 -4.5134375 5.54226562 -5.421875 6.17578125 C-7.04304197 7.3228797 -8.64134002 8.50374757 -10.203125 9.73046875 C-12 11 -12 11 -14 11 C-14.25265625 11.59554687 -14.5053125 12.19109375 -14.765625 12.8046875 C-16.14861842 15.26431504 -17.52671663 16.41014189 -19.75 18.125 C-24.4303356 22.0452081 -27.16059295 26.65460112 -30 32 C-30.33 31.34 -30.66 30.68 -31 30 C-28.1073361 23.23368184 -23.67773029 18.37425812 -18.08203125 13.734375 C-15.85959093 11.95853639 -15.85959093 11.95853639 -13.625 9.4375 C-9.56283816 5.66549258 -4.92319248 2.55276647 0 0 Z " fill="#ADABBD" transform="translate(180,180)"/>
<path d="M0 0 C3 1 3 1 4 3 C4.99 3.33 5.98 3.66 7 4 C7.70272701 5.31468512 8.36255183 6.65245332 9 8 C10.9831743 10.54094208 13.0507833 12.99789852 15.125 15.46484375 C16.94652758 17.92770084 18.00961736 20.11654221 19 23 C18.34 23.33 17.68 23.66 17 24 C16.57589844 23.28714844 16.15179688 22.57429688 15.71484375 21.83984375 C11.35320051 14.71742414 7.00233034 8.66822023 0 4 C0 2.68 0 1.36 0 0 Z " fill="#F2F1F6" transform="translate(309,97)"/>
<path d="M0 0 C0.66 0.33 1.32 0.66 2 1 C-3.79175102 10.86376709 -10.72635389 20.05729974 -19 28 C-19.66 27.67 -20.32 27.34 -21 27 C-20.40574219 26.3915625 -19.81148438 25.783125 -19.19921875 25.15625 C-11.83972303 17.37326853 -5.8929332 8.92902617 0 0 Z " fill="#CAC9D6" transform="translate(463,363)"/>
<path d="M0 0 C0.66 0.33 1.32 0.66 2 1 C-5.19822984 5.06082518 -12.05640502 8.61692151 -20 11 C-20.33 11.33 -20.66 11.66 -21 12 C-22.66617115 12.04063832 -24.33388095 12.042721 -26 12 C-20.70332618 7.88036481 -15.94465178 5.57178289 -9.5078125 3.765625 C-7.23299221 3.07113158 -5.15717562 2.24284234 -3 1.25 C-2.01 0.8375 -1.02 0.425 0 0 Z " fill="#9392A7" transform="translate(222,161)"/>
<path d="M0 0 C0.99 0.495 0.99 0.495 2 1 C2.77636669 3.83593567 3.45244021 6.62831169 4.0625 9.5 C4.76469988 14.66129996 4.76469988 14.66129996 7 19 C7.04080783 20.99958364 7.04254356 23.00045254 7 25 C6.34 24.67 5.68 24.34 5 24 C4.22535443 21.49774865 3.55073554 19.04154655 2.9375 16.5 C2.14910373 11.88163786 2.14910373 11.88163786 0 8 C-0.14115161 5.32941149 -0.04247107 2.67567762 0 0 Z " fill="#706F81" transform="translate(126,323)"/>
<path d="M0 0 C0.33 0.66 0.66 1.32 1 2 C-0.65764613 4.3402063 -2.3252795 6.67205082 -4 9 C-4.49242187 9.69480469 -4.98484375 10.38960937 -5.4921875 11.10546875 C-8.32729467 15.020267 -11.00284813 18.17848103 -15 21 C-13.61193985 17.71913055 -11.60767655 15.32579102 -9.29296875 12.64453125 C-7.96645636 10.95733573 -6.95883026 9.26022225 -5.9375 7.375 C-4.19917641 4.34695245 -2.58259193 2.30588565 0 0 Z " fill="#3F3F49" transform="translate(162,209)"/>
<path d="M0 0 C3.62613199 0.56959153 5.25517741 1.92374534 7.75 4.5625 C8.36359375 5.20316406 8.9771875 5.84382813 9.609375 6.50390625 C10.06828125 6.99761719 10.5271875 7.49132812 11 8 C9 9 9 9 6.125 8.25 C3.28666446 7.11466579 1.31537772 5.95916576 -1 4 C-0.67 2.68 -0.34 1.36 0 0 Z " fill="#C5C5D2" transform="translate(408,464)"/>
<path d="M0 0 C-1.175625 0.433125 -2.35125 0.86625 -3.5625 1.3125 C-8.59746306 3.20394115 -13.51680529 5.24441024 -18.3125 7.6875 C-21 9 -21 9 -23 9 C-22.4375 7.0625 -22.4375 7.0625 -21 5 C-17.375 4.25 -17.375 4.25 -14 4 C-14 3.34 -14 2.68 -14 2 C-12.42085985 1.46658816 -10.83645613 0.94874237 -9.25 0.4375 C-8.36828125 0.14746094 -7.4865625 -0.14257812 -6.578125 -0.44140625 C-3.92165684 -1.01697435 -2.52968894 -0.89248371 0 0 Z " fill="#ADACBE" transform="translate(217,164)"/>
<path d="M0 0 C0.75 1.625 0.75 1.625 1 4 C-0.8125 7 -0.8125 7 -3 10 C-3.4640625 11.051875 -3.4640625 11.051875 -3.9375 12.125 C-5.43676551 14.77076267 -7.57823137 16.2155389 -10 18 C-10 14.40142046 -9.04169485 12.90548882 -7 10 C-6.34 10 -5.68 10 -5 10 C-4.9175 9.46375 -4.835 8.9275 -4.75 8.375 C-3.73623902 5.1647569 -1.92839451 2.73707608 0 0 Z " fill="#727183" transform="translate(147,220)"/>
<path d="M0 0 C0 3.53105585 -0.50159211 3.88979005 -2.8125 6.375 C-4.66581591 8.43616442 -6.13691778 10.23002188 -7.5625 12.625 C-9.32687953 15.54006183 -11.53360643 17.66692501 -14 20 C-11.5339094 13.5502246 -9.11905297 8.74448812 -4 4 C-3.236875 3.236875 -2.47375 2.47375 -1.6875 1.6875 C-1.130625 1.130625 -0.57375 0.57375 0 0 Z " fill="#4A4956" transform="translate(162,207)"/>
<path d="M0 0 C0 0.99 0 1.98 0 3 C-2.30745381 4.70410173 -4.55567191 6.20816244 -7 7.6875 C-7.66773438 8.10322266 -8.33546875 8.51894531 -9.0234375 8.94726562 C-10.67636538 9.97444224 -12.33744888 10.98847336 -14 12 C-14 9 -14 9 -12.625 7.125 C-8.78728352 4.01827713 -4.45941363 2.07652085 0 0 Z " fill="#C3C3D0" transform="translate(223,162)"/>
<path d="M0 0 C2.35318596 3.52977894 2.8657526 6.78299147 3.5625 10.875 C3.81363654 12.28909191 4.06493494 13.70315509 4.31640625 15.1171875 C4.54199219 16.39851563 4.76757812 17.67984375 5 19 C5.3270826 20.66790463 5.65725594 22.33524314 6 24 C2.58934964 21.36449745 1.69663306 18.08602083 1 14 C0.55119655 9.33856421 0.24645578 4.67617415 0 0 Z " fill="#AAA9BB" transform="translate(122,320)"/>
<path d="M0 0 C1.77131561 0.30975468 3.54203778 0.62290425 5.3125 0.9375 C6.79169922 1.19853516 6.79169922 1.19853516 8.30078125 1.46484375 C11 2 11 2 14 3 C14.33 4.32 14.66 5.64 15 7 C9.72 5.35 4.44 3.7 -1 2 C-0.67 1.34 -0.34 0.68 0 0 Z " fill="#F4F3F7" transform="translate(395,154)"/>
<path d="M0 0 C0.33 0.99 0.66 1.98 1 3 C-0.51171875 5.62890625 -0.51171875 5.62890625 -2.6875 8.5625 C-3.39261719 9.53316406 -4.09773438 10.50382812 -4.82421875 11.50390625 C-6.84882482 13.82656923 -8.16451161 14.91828998 -11 16 C-7.43120211 10.59161557 -3.79801861 5.25020219 0 0 Z " fill="#EDEDF3" transform="translate(466,369)"/>
<path d="M0 0 C0.33 0 0.66 0 1 0 C1.04898438 0.59167969 1.09796875 1.18335938 1.1484375 1.79296875 C1.57002916 6.24875643 2.22596159 9.86057703 4 14 C4 15.32 4 16.64 4 18 C3.01 17.67 2.02 17.34 1 17 C-0.42610133 13.57735681 -0.09901205 9.90120467 -0.0625 6.25 C-0.05347656 5.07953125 -0.04445313 3.9090625 -0.03515625 2.703125 C-0.02355469 1.81109375 -0.01195313 0.9190625 0 0 Z " fill="#9291A4" transform="translate(125,322)"/>
<path d="M0 0 C1.33333333 0.33333333 2.66666667 0.66666667 4 1 C4.680625 1.12375 5.36125 1.2475 6.0625 1.375 C8.36951432 2.11919817 9.42674348 3.190755 11 5 C10.67 5.99 10.34 6.98 10 8 C6.37 6.02 2.74 4.04 -1 2 C-0.67 1.34 -0.34 0.68 0 0 Z " fill="#F4F3F7" transform="translate(417,162)"/>
<path d="M0 0 C0.66 0.33 1.32 0.66 2 1 C0.78719339 2.34823166 -0.44598091 3.67816082 -1.6875 5 C-2.37199219 5.7425 -3.05648437 6.485 -3.76171875 7.25 C-6.41336988 9.3231932 -7.7171341 9.36795695 -11 9 C-7.56638098 5.36440339 -4.2026393 2.63886654 0 0 Z " fill="#4A4958" transform="translate(196,177)"/>
<path d="M0 0 C0.33 0.99 0.66 1.98 1 3 C-0.60042272 6.20084543 -2.44025989 8.54264949 -5 11 C-6.34736973 12.65533995 -7.68334336 14.32012773 -9 16 C-8.858056 10.32224006 -6.31259809 7.66659962 -2.59375 3.734375 C-0.92340074 2.07671514 -0.92340074 2.07671514 0 0 Z " fill="#8F8EA2" transform="translate(144,222)"/>
<path d="M0 0 C0.66 0.33 1.32 0.66 2 1 C0.90353942 2.79639296 -0.20245148 4.58697154 -1.3125 6.375 C-2.23482422 7.87160156 -2.23482422 7.87160156 -3.17578125 9.3984375 C-5 12 -5 12 -8 14 C-6.6744419 10.37723685 -5.05653045 7.36494652 -2.875 4.1875 C-2.33617187 3.39730469 -1.79734375 2.60710937 -1.2421875 1.79296875 C-0.83226562 1.20128906 -0.42234375 0.60960937 0 0 Z " fill="#C2C2D0" transform="translate(463,363)"/>
<path d="M0 0 C0.33 1.65 0.66 3.3 1 5 C-1.475 6.485 -1.475 6.485 -4 8 C-4.33 6.02 -4.66 4.04 -5 2 C-2 0 -2 0 0 0 Z " fill="#B0AFC0" transform="translate(142,367)"/>
<path d="M0 0 C-2.12124966 0.86343824 -4.24713072 1.71550648 -6.375 2.5625 C-8.15003906 3.27599609 -8.15003906 3.27599609 -9.9609375 4.00390625 C-13 5 -13 5 -15 4 C-14 2 -14 2 -11.6015625 1.11328125 C-10.12816406 0.71689453 -10.12816406 0.71689453 -8.625 0.3125 C-7.64789063 0.04050781 -6.67078125 -0.23148438 -5.6640625 -0.51171875 C-3 -1 -3 -1 0 0 Z " fill="#D1D0DC" transform="translate(253,152)"/>
<path d="M0 0 C0 3.83764027 -1.26535335 5.11486085 -3.5 8.1875 C-4.1496875 9.08855469 -4.799375 9.98960938 -5.46875 10.91796875 C-5.9740625 11.60503906 -6.479375 12.29210937 -7 13 C-7.7109375 11.26171875 -7.7109375 11.26171875 -8 9 C-6.6015625 6.89453125 -6.6015625 6.89453125 -4.625 4.8125 C-3.97789063 4.11769531 -3.33078125 3.42289062 -2.6640625 2.70703125 C-1.78033392 1.80048338 -0.89521094 0.89521094 0 0 Z " fill="#8D8C9E" transform="translate(48,97)"/>
<path d="M0 0 C3.4375 0.8125 3.4375 0.8125 7 2 C7.33 2.99 7.66 3.98 8 5 C5.36 5 2.72 5 0 5 C-0.5625 3.0625 -0.5625 3.0625 -1 1 C-0.67 0.67 -0.34 0.34 0 0 Z " fill="#D6D5E0" transform="translate(414,471)"/>
<path d="M0 0 C2.46278801 2.46278801 2.99771255 4.70676982 4 8 C2.68 8.99 1.36 9.98 0 11 C0 7.37 0 3.74 0 0 Z " fill="#ACABBC" transform="translate(134,359)"/>
<path d="M0 0 C8.25 0 16.5 0 25 0 C25 0.33 25 0.66 25 1 C16.75 1 8.5 1 0 1 C0 0.67 0 0.34 0 0 Z " fill="#EEEEF3" transform="translate(344,147)"/>
<path d="M0 0 C0.99 0 1.98 0 3 0 C3.33 2.97 3.66 5.94 4 9 C3.34 9 2.68 9 2 9 C0.50178941 5.62902617 0 3.79557881 0 0 Z " fill="#807F92" transform="translate(149,326)"/>
<path d="M0 0 C0.33 1.32 0.66 2.64 1 4 C0.01 4.33 -0.98 4.66 -2 5 C-2.33 6.65 -2.66 8.3 -3 10 C-3.66 10 -4.32 10 -5 10 C-4.34 7.69 -3.68 5.38 -3 3 C-2.34 3 -1.68 3 -1 3 C-0.67 2.01 -0.34 1.02 0 0 Z " fill="#686879" transform="translate(140,234)"/>
<path d="M0 0 C2.22825644 2.22825644 2.69239369 3.65761628 3.625 6.625 C3.88539063 7.44226563 4.14578125 8.25953125 4.4140625 9.1015625 C4.60742188 9.72804687 4.80078125 10.35453125 5 11 C4.34 11.66 3.68 12.32 3 13 C2.30093058 11.40084119 1.61610532 9.79544955 0.9375 8.1875 C0.55464844 7.29417969 0.17179687 6.40085938 -0.22265625 5.48046875 C-1 3 -1 3 0 0 Z " fill="#9795A7" transform="translate(471,228)"/>
<path d="M0 0 C0.66 0.66 1.32 1.32 2 2 C-0.97 4.31 -3.94 6.62 -7 9 C-7.66 8.67 -8.32 8.34 -9 8 C-6.03 5.36 -3.06 2.72 0 0 Z " fill="#A9A8B9" transform="translate(133,370)"/>
<path d="M0 0 C2.375 0.6875 2.375 0.6875 5 2 C6.3125 4.625 6.3125 4.625 7 7 C4.03824877 6.38722388 2.61941217 5.74627478 0 4 C0 2.68 0 1.36 0 0 Z " fill="#F3F2F6" transform="translate(428,167)"/>
<path d="M0 0 C0.66 0 1.32 0 2 0 C2.33 1.65 2.66 3.3 3 5 C2.01 5.66 1.02 6.32 0 7 C-0.66 5.35 -1.32 3.7 -2 2 C-1.34 1.34 -0.68 0.68 0 0 Z " fill="#7F7E91" transform="translate(143,364)"/>
<path d="M0 0 C0.33 0 0.66 0 1 0 C1 6.93 1 13.86 1 21 C0.67 21 0.34 21 0 21 C0 14.07 0 7.14 0 0 Z " fill="#EFEFF4" transform="translate(492,280)"/>
<path d="M0 0 C0.33 0 0.66 0 1 0 C1.32613618 4.67461851 0.70582788 7.16674383 -2 11 C-2.95465783 8.83032311 -3.14401212 7.43671207 -2.3984375 5.17578125 C-1.64129615 3.4315257 -0.82390802 1.71372869 0 0 Z " fill="#B2B1C2" transform="translate(128,246)"/>
<path d="M0 0 C6.93 0 13.86 0 21 0 C21 0.33 21 0.66 21 1 C14.07 1 7.14 1 0 1 C0 0.67 0 0.34 0 0 Z " fill="#CCCBD1" transform="translate(238,88)"/>
<path d="M0 0 C6.93 0 13.86 0 21 0 C21 0.33 21 0.66 21 1 C14.07 1 7.14 1 0 1 C0 0.67 0 0.34 0 0 Z " fill="#C6C5CC" transform="translate(214,87)"/>
<path d="M0 0 C6.93 0 13.86 0 21 0 C21 0.33 21 0.66 21 1 C14.07 1 7.14 1 0 1 C0 0.67 0 0.34 0 0 Z " fill="#C2C2C8" transform="translate(190,86)"/>
<path d="M0 0 C6.93 0 13.86 0 21 0 C21 0.33 21 0.66 21 1 C14.07 1 7.14 1 0 1 C0 0.67 0 0.34 0 0 Z " fill="#BDBDC4" transform="translate(166,85)"/>
<path d="M0 0 C0.99 0.33 1.98 0.66 3 1 C3 3.31 3 5.62 3 8 C2.01 8.495 2.01 8.495 1 9 C0.67 6.03 0.34 3.06 0 0 Z " fill="#7D7D8F" transform="translate(146,310)"/>
<path d="M0 0 C0.66 0.33 1.32 0.66 2 1 C1.23997083 2.31878578 0.46656347 3.6298684 -0.3125 4.9375 C-0.74175781 5.66839844 -1.17101562 6.39929688 -1.61328125 7.15234375 C-3 9 -3 9 -6 10 C-4.6302836 6.00499382 -2.74277578 3.19990508 0 0 Z " fill="#616071" transform="translate(154,212)"/>
<path d="M0 0 C6.6 0 13.2 0 20 0 C20 0.33 20 0.66 20 1 C13.4 1 6.8 1 0 1 C0 0.67 0 0.34 0 0 Z " fill="#DDDDE2" transform="translate(262,89)"/>
<path d="M0 0 C0.66 0.99 1.32 1.98 2 3 C2.99387334 4.33790641 3.9926892 5.67218122 5 7 C4.67 7.66 4.34 8.32 4 9 C2.35 7.68 0.7 6.36 -1 5 C-0.67 3.35 -0.34 1.7 0 0 Z " fill="#9E9DAF" transform="translate(99,374)"/>
<path d="M0 0 C0.66 0.33 1.32 0.66 2 1 C1 4 1 4 -2.0625 5.6875 C-3.031875 6.120625 -4.00125 6.55375 -5 7 C-3.75023244 3.34683329 -3.32901247 2.21934164 0 0 Z " fill="#BDBCCB" transform="translate(213,167)"/>
<path d="M0 0 C0.66 0 1.32 0 2 0 C4.09230769 4.43076923 4.09230769 4.43076923 3.625 7.3125 C3.41875 7.869375 3.2125 8.42625 3 9 C0.87491756 5.81237635 0.4979837 3.73487777 0 0 Z " fill="#F4F3F8" transform="translate(327,121)"/>
<path d="M0 0 C0.99 0 1.98 0 3 0 C2.46930939 3.82097239 1.50298434 6.06171403 -1 9 C-0.67 6.03 -0.34 3.06 0 0 Z " fill="#7C7B8D" transform="translate(149,253)"/>
<path d="M0 0 C0.66 0.33 1.32 0.66 2 1 C1.25 5.75 1.25 5.75 -1 8 C-1.66 6.35 -2.32 4.7 -3 3 C-2.01 2.01 -1.02 1.02 0 0 Z " fill="#51515D" transform="translate(147,360)"/>
<path d="M0 0 C1.98 0.99 1.98 0.99 4 2 C4 3.98 4 5.96 4 8 C3.34 7.67 2.68 7.34 2 7 C1.26924352 4.6859378 0.59861742 2.35171131 0 0 Z " fill="#8F8EA1" transform="translate(134,357)"/>
<path d="M0 0 C0.8353125 0.556875 0.8353125 0.556875 1.6875 1.125 C-1.125 2.25 -1.125 2.25 -4.3125 3.125 C-5.3025 2.465 -6.2925 1.805 -7.3125 1.125 C-2.88173077 -1.09038462 -2.88173077 -1.09038462 0 0 Z " fill="#C2C2D0" transform="translate(237.3125,154.875)"/>
<path d="M0 0 C0.33 0 0.66 0 1 0 C1 2.97 1 5.94 1 9 C0.67 9 0.34 9 0 9 C0 6.03 0 3.06 0 0 Z " fill="#F0F0F5" transform="translate(491,268)"/>
<path d="M0 0 C2.97 0 5.94 0 9 0 C9 0.33 9 0.66 9 1 C6.03 1 3.06 1 0 1 C0 0.67 0 0.34 0 0 Z " fill="#EEEEF3" transform="translate(370,148)"/>
<path d="M0 0 C2.64 0 5.28 0 8 0 C8 0.33 8 0.66 8 1 C5.36 1 2.72 1 0 1 C0 0.67 0 0.34 0 0 Z " fill="#E3E2EB" transform="translate(428,480)"/>
<path d="M0 0 C2.64 0 5.28 0 8 0 C8 0.33 8 0.66 8 1 C5.36 1 2.72 1 0 1 C0 0.67 0 0.34 0 0 Z " fill="#ECEBF1" transform="translate(286,90)"/>
<path d="M0 0 C0.33 0 0.66 0 1 0 C1 2.31 1 4.62 1 7 C0.67 7 0.34 7 0 7 C0 4.69 0 2.38 0 0 Z " fill="#EFEFF4" transform="translate(491,303)"/>
<path d="M0 0 C1.98 0 3.96 0 6 0 C6 0.33 6 0.66 6 1 C4.02 1 2.04 1 0 1 C0 0.67 0 0.34 0 0 Z " fill="#EFEFF4" transform="translate(380,149)"/>
<path d="M0 0 C0.33 0 0.66 0 1 0 C1 1.65 1 3.3 1 5 C0.67 5 0.34 5 0 5 C0 3.35 0 1.7 0 0 Z " fill="#F1F0F5" transform="translate(489,257)"/>
<path d="M0 0 C1 4 1 4 1 4 Z " fill="#F0EFF4" transform="translate(488,322)"/>
<path d="M0 0 C1 4 1 4 1 4 Z " fill="#EFEEF3" transform="translate(489,318)"/>
<path d="M0 0 C1 4 1 4 1 4 Z " fill="#EFEFF4" transform="translate(490,312)"/>
<path d="M0 0 C1 4 1 4 1 4 Z " fill="#F0F0F4" transform="translate(490,263)"/>
<path d="M0 0 C1 4 1 4 1 4 Z " fill="#F0F0F5" transform="translate(488,252)"/>
<path d="M0 0 C4 1 4 1 4 1 Z " fill="#F0EFF4" transform="translate(394,152)"/>
<path d="M0 0 C4 1 4 1 4 1 Z " fill="#EFEFF4" transform="translate(390,151)"/>
<path d="M0 0 C4 1 4 1 4 1 Z " fill="#EFEFF4" transform="translate(386,150)"/>
<path d="M0 0 C1 4 1 4 1 4 Z " fill="#F0F0F4" transform="translate(333,130)"/>
<path d="M0 0 C4 1 4 1 4 1 Z " fill="#ECECF2" transform="translate(294,91)"/>
<path d="" fill="#E6E5ED" transform="translate(0,0)"/>
<path d="" fill="#F0F0F5" transform="translate(0,0)"/>
<path d="" fill="#EFEFF4" transform="translate(0,0)"/>
<path d="" fill="#F2F2F7" transform="translate(0,0)"/>
<path d="" fill="#F2F1F6" transform="translate(0,0)"/>
<path d="M0 0 C3 1 3 1 3 1 Z " fill="#F0EFF4" transform="translate(398,153)"/>
<path d="" fill="#F1F1F6" transform="translate(0,0)"/>
<path d="M0 0 C3 1 3 1 3 1 Z " fill="#EDECF1" transform="translate(298,92)"/>
<path d="M0 0 C2 1 2 1 2 1 Z " fill="#E4E4EB" transform="translate(436,479)"/>
<path d="M0 0 C2 1 2 1 2 1 Z " fill="#E2E1E9" transform="translate(425,479)"/>
<path d="M0 0 C2 1 2 1 2 1 Z " fill="#DAD9E3" transform="translate(422,478)"/>
<path d="M0 0 C2 1 2 1 2 1 Z " fill="#D9D9E3" transform="translate(419,477)"/>
<path d="M0 0 C2 1 2 1 2 1 Z " fill="#D8D7E1" transform="translate(416,476)"/>
<path d="" fill="#E6E6EE" transform="translate(0,0)"/>
<path d="" fill="#F3F3F7" transform="translate(0,0)"/>
<path d="" fill="#F1F1F7" transform="translate(0,0)"/>
<path d="" fill="#EFEFF5" transform="translate(0,0)"/>
<path d="" fill="#F2F1F7" transform="translate(0,0)"/>
<path d="" fill="#F5F5F8" transform="translate(0,0)"/>
<path d="" fill="#F7F7FA" transform="translate(0,0)"/>
<path d="" fill="#F3F2F8" transform="translate(0,0)"/>
<path d="" fill="#EFEFF5" transform="translate(0,0)"/>
<path d="" fill="#EEEDF3" transform="translate(0,0)"/>
<path d="" fill="#F2F2F8" transform="translate(0,0)"/>
<path d="" fill="#EEEDF2" transform="translate(0,0)"/>
<path d="" fill="#F2F1F7" transform="translate(0,0)"/>
<path d="" fill="#F3F2F8" transform="translate(0,0)"/>
<path d="" fill="#F1F1F6" transform="translate(0,0)"/>
<path d="" fill="#F2F2F7" transform="translate(0,0)"/>
<path d="" fill="#F4F4F9" transform="translate(0,0)"/>
<path d="" fill="#F3F2F7" transform="translate(0,0)"/>
<path d="" fill="#F1F1F6" transform="translate(0,0)"/>
<path d="" fill="#F5F4F9" transform="translate(0,0)"/>
<path d="" fill="#F9F9FB" transform="translate(0,0)"/>
<path d="" fill="#F2F1F6" transform="translate(0,0)"/>
<path d="" fill="#F6F6FA" transform="translate(0,0)"/>
<path d="" fill="#F3F3F7" transform="translate(0,0)"/>
<path d="" fill="#F3F3F7" transform="translate(0,0)"/>
<path d="" fill="#F6F5F9" transform="translate(0,0)"/>
<path d="" fill="#F4F4F7" transform="translate(0,0)"/>
<path d="" fill="#F6F6FA" transform="translate(0,0)"/>
<path d="M0 0 C2 1 2 1 2 1 Z " fill="#F0F0F4" transform="translate(421,163)"/>
<path d="M0 0 C2 1 2 1 2 1 Z " fill="#EFEFF4" transform="translate(416,160)"/>
<path d="M0 0 C2 1 2 1 2 1 Z " fill="#F0F0F4" transform="translate(414,159)"/>
<path d="M0 0 C2 1 2 1 2 1 Z " fill="#F0EFF4" transform="translate(411,158)"/>
<path d="M0 0 C2 1 2 1 2 1 Z " fill="#F0EFF4" transform="translate(409,157)"/>
<path d="M0 0 C2 1 2 1 2 1 Z " fill="#F0EFF4" transform="translate(404,155)"/>
<path d="M0 0 C2 1 2 1 2 1 Z " fill="#F0F0F4" transform="translate(402,154)"/>
<path d="" fill="#F2F2F7" transform="translate(0,0)"/>
<path d="" fill="#F0EFF4" transform="translate(0,0)"/>
<path d="" fill="#F3F2F7" transform="translate(0,0)"/>
<path d="" fill="#F6F6F9" transform="translate(0,0)"/>
<path d="" fill="#F6F6F9" transform="translate(0,0)"/>
<path d="" fill="#F1F1F6" transform="translate(0,0)"/>
<path d="M0 0 C2 1 2 1 2 1 Z " fill="#EDEDF3" transform="translate(307,96)"/>
<path d="M0 0 C2 1 2 1 2 1 Z " fill="#EEEDF2" transform="translate(303,94)"/>
<path d="M0 0 C2 1 2 1 2 1 Z " fill="#EDECF2" transform="translate(301,93)"/>
<path d="" fill="#E4E3EB" transform="translate(0,0)"/>
<path d="" fill="#E4E4EB" transform="translate(0,0)"/>
<path d="" fill="#E4E3EB" transform="translate(0,0)"/>
<path d="" fill="#E5E4EB" transform="translate(0,0)"/>
<path d="" fill="#E5E4EC" transform="translate(0,0)"/>
<path d="" fill="#E8E8EF" transform="translate(0,0)"/>
<path d="" fill="#E8E7EE" transform="translate(0,0)"/>
<path d="" fill="#E8E8EE" transform="translate(0,0)"/>
<path d="" fill="#E8E8EE" transform="translate(0,0)"/>
<path d="" fill="#E8E8EE" transform="translate(0,0)"/>
<path d="" fill="#E8E8EF" transform="translate(0,0)"/>
<path d="" fill="#E8E8EE" transform="translate(0,0)"/>
<path d="" fill="#E8E8EE" transform="translate(0,0)"/>
<path d="" fill="#ECECF3" transform="translate(0,0)"/>
<path d="" fill="#E9E8EE" transform="translate(0,0)"/>
<path d="" fill="#E9E9EF" transform="translate(0,0)"/>
<path d="" fill="#E9E8EF" transform="translate(0,0)"/>
<path d="" fill="#EDEDF3" transform="translate(0,0)"/>
<path d="" fill="#E9E9EF" transform="translate(0,0)"/>
<path d="" fill="#ECECF2" transform="translate(0,0)"/>
<path d="" fill="#E9E9F0" transform="translate(0,0)"/>
<path d="" fill="#F0EFF5" transform="translate(0,0)"/>
<path d="" fill="#EAE9F0" transform="translate(0,0)"/>
<path d="" fill="#EEEDF3" transform="translate(0,0)"/>
<path d="" fill="#ECECF2" transform="translate(0,0)"/>
<path d="" fill="#EFEEF5" transform="translate(0,0)"/>
<path d="" fill="#EDEDF3" transform="translate(0,0)"/>
<path d="" fill="#F4F4F9" transform="translate(0,0)"/>
<path d="" fill="#F4F4F8" transform="translate(0,0)"/>
<path d="" fill="#F5F4F8" transform="translate(0,0)"/>
<path d="" fill="#F1F0F5" transform="translate(0,0)"/>
<path d="" fill="#F6F5F9" transform="translate(0,0)"/>
<path d="" fill="#F1F1F5" transform="translate(0,0)"/>
<path d="" fill="#F5F5F8" transform="translate(0,0)"/>
<path d="" fill="#F1F1F5" transform="translate(0,0)"/>
<path d="" fill="#F4F4F8" transform="translate(0,0)"/>
<path d="" fill="#F1F1F5" transform="translate(0,0)"/>
<path d="" fill="#F1F1F5" transform="translate(0,0)"/>
<path d="" fill="#F6F5F9" transform="translate(0,0)"/>
<path d="" fill="#F1F1F5" transform="translate(0,0)"/>
<path d="" fill="#F1F1F5" transform="translate(0,0)"/>
<path d="" fill="#F4F3F8" transform="translate(0,0)"/>
<path d="" fill="#F1F1F5" transform="translate(0,0)"/>
<path d="" fill="#F1F0F5" transform="translate(0,0)"/>
<path d="" fill="#F1F1F5" transform="translate(0,0)"/>
<path d="" fill="#F1F1F5" transform="translate(0,0)"/>
<path d="" fill="#F1F0F5" transform="translate(0,0)"/>
<path d="" fill="#F1F1F5" transform="translate(0,0)"/>
<path d="" fill="#F0F0F5" transform="translate(0,0)"/>
<path d="" fill="#F1F0F5" transform="translate(0,0)"/>
<path d="" fill="#F0F0F5" transform="translate(0,0)"/>
<path d="" fill="#F0F0F5" transform="translate(0,0)"/>
<path d="" fill="#F0F0F5" transform="translate(0,0)"/>
<path d="" fill="#F1F1F5" transform="translate(0,0)"/>
<path d="" fill="#F0F0F5" transform="translate(0,0)"/>
<path d="" fill="#F0F0F5" transform="translate(0,0)"/>
<path d="" fill="#F0F0F5" transform="translate(0,0)"/>
<path d="" fill="#F1F0F5" transform="translate(0,0)"/>
<path d="" fill="#F0F0F5" transform="translate(0,0)"/>
<path d="" fill="#F0F0F5" transform="translate(0,0)"/>
<path d="" fill="#F0F0F5" transform="translate(0,0)"/>
<path d="" fill="#F3F3F8" transform="translate(0,0)"/>
<path d="" fill="#F0F0F5" transform="translate(0,0)"/>
<path d="" fill="#EEEEF3" transform="translate(0,0)"/>
<path d="" fill="#F1F1F6" transform="translate(0,0)"/>
<path d="" fill="#EEEEF3" transform="translate(0,0)"/>
<path d="" fill="#EFEEF3" transform="translate(0,0)"/>
<path d="" fill="#EEEDF3" transform="translate(0,0)"/>
<path d="" fill="#EEEEF3" transform="translate(0,0)"/>
<path d="" fill="#EEEEF3" transform="translate(0,0)"/>
<path d="" fill="#EEEEF3" transform="translate(0,0)"/>
<path d="" fill="#EEEDF2" transform="translate(0,0)"/>
</svg>
